<svg width="311" height="27" viewBox="0 0 311 27" fill="none" xmlns="http://www.w3.org/2000/svg">
<path d="M0.0668945 0.167236C0.143927 -0.0279135 0.26783 -0.0570042 0.411621 0.104736C0.552858 0.263949 0.650158 0.454427 0.783691 0.968018C0.917208 1.48156 0.948269 1.80553 1.07666 2.67603C1.20246 3.54379 1.30267 4.20136 1.42334 5.31567C1.54144 6.42991 1.58728 7.02826 1.66943 8.25024C1.7516 9.47244 1.77994 10.1328 1.83643 11.4319C1.89035 12.7313 1.91889 13.474 1.94971 14.7502C1.97795 16.0263 1.94991 16.6709 1.98584 17.8108C2.02436 18.951 2.06494 19.4961 2.13428 20.4514C2.2036 21.409 2.28092 21.8609 2.3374 22.5901C2.39133 23.3194 2.37079 23.5792 2.40674 24.0979C2.44267 24.6137 2.47052 24.8141 2.51416 25.176C2.56038 25.5407 2.62976 25.6874 2.63232 25.9133C2.63484 26.1363 2.58108 26.1954 2.52979 26.303C2.47846 26.4082 2.43486 26.4266 2.37842 26.4446C2.31957 26.465 2.28357 26.4269 2.24268 26.3987C2.20159 26.3679 2.22408 26.3726 2.17529 26.2981C2.12653 26.2264 2.07002 26.2313 1.99561 26.0286C1.92114 25.8257 1.86253 25.6583 1.79834 25.2834C1.7342 24.9088 1.72602 24.6853 1.67725 24.1565C1.62846 23.6275 1.5921 23.3733 1.55615 22.6389C1.51764 21.9071 1.51506 21.4475 1.48682 20.4846C1.45857 19.5218 1.43094 18.9695 1.41553 17.8245C1.39755 16.6792 1.43083 16.0337 1.40771 14.76C1.38204 13.4892 1.35862 12.7497 1.29443 11.4583C1.22767 10.1666 1.19479 9.50858 1.07666 8.29907C0.961122 7.08981 0.886644 6.50938 0.709473 5.4104C0.529721 4.31394 0.326655 3.67713 0.187988 2.81177C0.0493189 1.94637 0.0392249 1.61225 0.0161133 1.08325C-0.00953303 0.554894 -0.0124914 0.362199 0.0668945 0.167236ZM277.804 13.7825C278.341 13.7697 278.7 13.8464 279.177 13.967C279.655 14.0877 279.871 14.1828 280.192 14.3831C280.515 14.5808 280.706 14.7737 280.786 14.9612C280.862 15.1483 280.765 15.2791 280.583 15.3176C280.4 15.3587 280.192 15.2252 279.871 15.1584C279.55 15.0917 279.391 15.0375 278.98 14.9836C278.569 14.9272 278.271 14.8889 277.817 14.8889C277.362 14.8863 277.08 14.9347 276.705 14.9758C276.33 15.0169 276.168 15.0529 275.942 15.094C275.713 15.1376 275.582 15.156 275.567 15.1868C275.554 15.2172 275.617 15.1634 275.871 15.2454C276.127 15.3249 276.358 15.4207 276.848 15.5901C277.341 15.7621 277.675 15.8669 278.333 16.0979C278.987 16.3264 279.414 16.4833 280.13 16.7375C280.847 16.9943 281.261 17.1072 281.916 17.3743C282.568 17.6412 282.929 17.7674 283.394 18.0754C283.861 18.381 284.07 18.5637 284.245 18.9104C284.417 19.2543 284.414 19.4551 284.262 19.7991C284.113 20.1455 283.939 20.3334 283.495 20.6389C283.053 20.9444 282.701 21.088 282.054 21.3293C281.405 21.5682 280.972 21.6449 280.253 21.8401C279.535 22.0352 279.147 22.1428 278.461 22.302C277.776 22.4612 277.395 22.567 276.823 22.6389C276.25 22.7108 275.968 22.7054 275.603 22.6643C275.241 22.6232 275.102 22.5878 275.004 22.4338C274.904 22.2798 274.964 22.1095 275.105 21.8938C275.244 21.6782 275.424 21.4501 275.704 21.3577C275.983 21.2653 276.312 21.3061 276.504 21.4319C276.616 21.506 276.677 21.6152 276.692 21.7336C277.214 21.6134 277.571 21.5243 278.217 21.345C278.877 21.1627 279.265 21.0466 279.956 20.8284C280.649 20.6101 281.055 20.456 281.676 20.2532C282.295 20.0478 282.632 19.9529 283.055 19.804C283.481 19.6525 283.651 19.6166 283.797 19.5012C283.944 19.3857 283.949 19.3619 283.788 19.2258C283.626 19.0897 283.435 19.008 282.991 18.8206C282.547 18.6332 282.2 18.5176 281.563 18.2942C280.926 18.0708 280.528 17.9219 279.809 17.6985C279.09 17.4777 278.643 17.4053 277.965 17.1819C277.288 16.9611 276.925 16.8559 276.415 16.594C275.904 16.3296 275.665 16.1626 275.411 15.8674C275.159 15.5721 275.11 15.3995 275.151 15.1145C275.189 14.8322 275.336 14.6706 275.606 14.4524C275.878 14.2368 276.063 14.1675 276.501 14.0315C276.941 13.898 277.27 13.7953 277.804 13.7825ZM288.071 14.8069C288.238 14.7632 288.348 14.7865 288.438 14.8635C288.53 14.938 288.515 15.0892 288.531 15.1868C288.544 15.2842 288.526 15.2459 288.505 15.3508C288.487 15.4587 288.52 15.5386 288.433 15.7209C288.346 15.9058 288.215 16.0114 288.074 16.2708C287.933 16.53 287.843 16.6815 287.727 17.0178C287.612 17.3542 287.549 17.5801 287.5 17.9524C287.449 18.3247 287.416 18.5228 287.475 18.8772C287.534 19.2288 287.599 19.3933 287.796 19.7219C287.991 20.0529 288.135 20.2428 288.451 20.5276C288.767 20.8126 288.942 20.9873 289.375 21.1516C289.809 21.316 290.059 21.3135 290.624 21.3469C291.186 21.3803 291.551 21.3887 292.193 21.3245C292.832 21.2603 293.212 21.198 293.829 21.0286C294.445 20.8566 294.761 20.7257 295.274 20.469C295.787 20.2122 296.032 20.0531 296.391 19.7424C296.471 19.6732 296.541 19.6098 296.603 19.551C296.364 19.3414 296.212 19.1401 296.047 18.8157C295.816 18.3689 295.747 18.0218 295.778 17.5647C295.809 17.1077 295.952 16.7966 296.201 16.5295C296.45 16.2626 296.707 16.1704 297.02 16.2268C297.333 16.2807 297.562 16.4531 297.773 16.8049C297.983 17.1592 298.071 17.4982 298.076 17.9885C298.081 18.4789 298.021 18.7817 297.795 19.2542C297.792 19.2622 297.787 19.2696 297.783 19.2776C297.975 19.3711 298.186 19.4365 298.509 19.5061C299.023 19.6165 299.383 19.6138 300.014 19.6292C300.646 19.6446 301.029 19.6372 301.666 19.5833C302.302 19.5293 302.642 19.4777 303.194 19.3596C303.746 19.2441 304.051 19.1668 304.426 18.9973C304.801 18.8279 304.845 18.7353 305.068 18.512C305.291 18.2912 305.361 18.0811 305.541 17.886C305.718 17.6909 305.78 17.6086 305.957 17.5393C306.136 17.4674 306.216 17.4493 306.432 17.5315C306.65 17.6136 306.807 17.6905 307.038 17.9495C307.271 18.2062 307.357 18.4682 307.598 18.8225C307.84 19.1743 307.934 19.3928 308.248 19.7112C308.561 20.0321 308.815 20.1811 309.159 20.4172C309.505 20.6534 309.693 20.7383 309.97 20.8948C310.245 21.0489 310.392 21.1009 310.543 21.1985C310.695 21.2933 310.684 21.3271 310.728 21.3733C310.769 21.4167 310.728 21.4012 310.751 21.4192C310.775 21.4368 310.836 21.4141 310.846 21.4602C310.859 21.509 310.895 21.5837 310.805 21.6633C310.713 21.7429 310.625 21.8554 310.389 21.8606C310.15 21.8657 309.962 21.812 309.616 21.6887C309.267 21.5655 309.069 21.4806 308.648 21.2444C308.229 21.0082 307.926 20.8512 307.518 20.5071C307.107 20.1606 306.884 19.922 306.599 19.5217C306.323 19.133 306.208 18.8528 306.1 18.5315C305.975 18.7032 305.816 18.858 305.6 19.0618C305.315 19.3314 305.222 19.4678 304.786 19.7092C304.352 19.9505 304.026 20.0997 303.422 20.2717C302.816 20.4438 302.451 20.4925 301.763 20.5696C301.078 20.6466 300.682 20.6845 299.984 20.6614C299.286 20.6357 298.885 20.6233 298.274 20.4514C297.833 20.3278 297.558 20.2164 297.273 20.0422C297.183 20.1404 297.08 20.2442 296.958 20.3616C296.538 20.7644 296.273 20.949 295.701 21.2698C295.131 21.5908 294.786 21.7555 294.103 21.9661C293.42 22.1766 292.999 22.2538 292.288 22.3206C291.576 22.3873 291.194 22.3617 290.546 22.3C289.897 22.2359 289.589 22.2178 289.044 22.0022C288.5 21.7865 288.232 21.5836 287.827 21.219C287.421 20.8518 287.267 20.6022 287.021 20.1682C286.775 19.7369 286.7 19.5086 286.597 19.0491C286.497 18.5895 286.494 18.3402 286.512 17.8704C286.533 17.4031 286.576 17.1359 286.692 16.7073C286.805 16.2787 286.902 16.0523 287.084 15.7239C287.264 15.3979 287.401 15.2612 287.598 15.0764C287.796 14.8942 287.901 14.8505 288.071 14.8069ZM127.725 4.6604C128.616 4.70919 129.107 4.80425 129.952 5.05591C130.799 5.31013 131.256 5.50073 131.95 5.927C132.643 6.35566 132.923 6.63796 133.416 7.19751C133.906 7.75989 134.104 8.08677 134.405 8.72876C134.705 9.37293 134.838 9.77103 134.917 10.4153C134.997 11.0597 134.89 11.3732 134.805 11.9534C134.72 12.5337 134.651 12.8343 134.497 13.3196C134.469 13.4079 134.442 13.4885 134.417 13.5637C134.636 13.5157 134.885 13.4778 135.208 13.4426C135.896 13.3656 136.33 13.3455 137.165 13.4045C138.002 13.461 138.505 13.5308 139.386 13.7336C140.27 13.9339 140.742 14.0953 141.58 14.4163C142.414 14.7346 142.881 14.9013 143.567 15.3352C144.252 15.7691 144.617 16.0547 145.012 16.5862C145.405 17.1151 145.498 17.4618 145.534 17.9856C145.57 18.5095 145.477 18.7585 145.192 19.2053C144.907 19.6495 144.676 19.8679 144.109 20.217C143.541 20.5689 143.138 20.7285 142.352 20.9622C141.566 21.1932 141.073 21.2444 140.177 21.3831C139.278 21.5192 138.803 21.5681 137.861 21.6477C136.918 21.7299 136.374 21.7893 135.462 21.7893C134.551 21.7867 134.091 21.7122 133.302 21.6428C132.512 21.571 132.126 21.56 131.515 21.4368C130.907 21.3136 130.581 21.2544 130.252 21.0286C129.926 20.8053 129.88 20.6104 129.882 20.3127C129.885 20.0149 130.054 19.7495 130.267 19.5364C130.478 19.3207 130.753 19.2154 130.946 19.2385C131.138 19.2619 131.258 19.4752 131.23 19.6497C131.202 19.8268 130.984 19.9731 130.804 20.1194C130.622 20.2654 130.387 20.3122 130.322 20.3889C130.26 20.4634 130.227 20.4533 130.494 20.4944C130.758 20.5354 131.069 20.5259 131.649 20.5901C132.227 20.6517 132.623 20.7231 133.385 20.8079C134.15 20.8952 134.59 21.0057 135.47 21.0237C136.351 21.0391 136.877 20.9804 137.792 20.8879C138.703 20.7981 139.178 20.7365 140.036 20.5696C140.891 20.4027 141.349 20.2812 142.073 20.05C142.796 19.8165 143.143 19.66 143.654 19.4084C144.165 19.1542 144.379 19.0566 144.623 18.7844C144.866 18.5123 144.928 18.3889 144.879 18.05C144.831 17.7111 144.738 17.4901 144.383 17.092C144.029 16.6941 143.731 16.4479 143.112 16.0627C142.493 15.6776 142.067 15.4722 141.289 15.1692C140.508 14.8688 140.044 14.7112 139.214 14.552C138.382 14.3902 137.907 14.3627 137.136 14.3704C136.364 14.3781 135.976 14.4957 135.357 14.5881C134.738 14.6831 134.448 14.7633 134.044 14.8352C133.642 14.9071 133.541 14.9503 133.341 14.9426C133.333 14.9424 133.324 14.94 133.316 14.9397C133.181 14.9728 133.084 14.9418 133.012 14.8606C132.92 14.7553 132.843 14.5752 132.987 14.3596C133.073 14.2311 133.163 14.1163 133.315 14.0051C133.318 13.9983 133.323 13.9917 133.326 13.9846C133.446 13.7022 133.519 13.4941 133.642 13.0627C133.763 12.6291 133.852 12.3286 133.937 11.8206C134.022 11.3095 134.124 11.0622 134.06 10.5178C133.996 9.97363 133.872 9.64989 133.616 9.0979C133.356 8.54595 133.195 8.24517 132.774 7.7522C132.353 7.25921 132.121 7.01564 131.51 6.63306C130.899 6.25051 130.483 6.06564 129.718 5.83716C128.956 5.60605 128.493 5.51544 127.684 5.48462C126.878 5.45638 126.41 5.50517 125.684 5.68481C124.96 5.86713 124.613 6.06062 124.061 6.39185C123.509 6.72054 123.275 6.96455 122.925 7.34204C122.574 7.71674 122.515 7.96589 122.312 8.2688C122.107 8.57435 122.058 8.76461 121.904 8.85962C121.752 8.9572 121.619 8.941 121.549 8.7561C121.48 8.56872 121.441 8.3502 121.559 7.93188C121.677 7.51596 121.745 7.15373 122.14 6.66333C122.535 6.17305 122.869 5.85493 123.54 5.48267C124.21 5.11293 124.654 4.97121 125.491 4.80688C126.328 4.64254 126.831 4.60904 127.725 4.6604ZM88.2397 11.1809C88.5042 11.1578 88.6823 11.2166 88.9058 11.345C89.129 11.4708 89.273 11.6149 89.3628 11.8176C89.45 12.0204 89.4291 12.2159 89.3521 12.3596C89.2751 12.5057 89.1187 12.5386 88.9751 12.5413C88.8287 12.5464 88.7458 12.4517 88.6226 12.3772C88.5022 12.3029 88.4457 12.2415 88.3638 12.1672C88.2817 12.0903 88.2632 12.0362 88.2095 12.0002C88.1581 11.9643 88.1321 11.9536 88.0962 11.9895C88.0628 12.028 88.0094 12.0539 88.0376 12.1848C88.0658 12.3157 88.0835 12.3775 88.2427 12.6497C88.3993 12.9193 88.5051 13.1476 88.8286 13.5354C89.1495 13.9231 89.3777 14.1391 89.8501 14.5833C90.3252 15.0249 90.6184 15.3179 91.1987 15.7493C91.7789 16.1831 92.1208 16.3632 92.7524 16.7483C93.3838 17.1333 93.7845 17.3333 94.3569 17.6721C94.9322 18.0111 95.2255 18.1345 95.6235 18.4426C96.0239 18.7506 96.2295 18.9126 96.3579 19.218C96.4889 19.5236 96.4652 19.709 96.27 19.9709C96.0749 20.2302 95.8666 20.3256 95.3813 20.5208C94.8963 20.7158 94.5496 20.8156 93.8413 20.9465C93.1326 21.0775 92.6595 21.0903 91.8403 21.175C91.0187 21.2572 90.5407 21.3084 89.7446 21.3674C88.9489 21.4239 88.5124 21.4675 87.8579 21.4573C87.2057 21.447 86.9254 21.4324 86.4761 21.3118C86.0268 21.1911 85.8446 21.0903 85.6187 20.8567C85.3927 20.623 85.3488 20.415 85.3462 20.1428C85.3411 19.8706 85.4621 19.6032 85.5981 19.4954C85.7316 19.3881 85.9441 19.4727 86.0161 19.6008C86.0905 19.7317 85.9751 19.9757 85.9673 20.1477C85.9596 20.3198 85.8522 20.3742 85.978 20.4641C86.1038 20.5539 86.2251 20.5819 86.5972 20.5999C86.9692 20.6178 87.2285 20.5893 87.8442 20.5559C88.458 20.5251 88.8955 20.5071 89.6685 20.4377C90.4437 20.3659 90.9191 20.3327 91.7124 20.2043C92.5057 20.076 92.9452 19.9249 93.6333 19.7991C94.3187 19.6759 94.6781 19.6269 95.1479 19.5833C95.6153 19.5396 95.8133 19.5987 95.9751 19.5833C96.1366 19.5705 96.1157 19.5983 95.9565 19.511C95.7974 19.4238 95.5943 19.3514 95.1812 19.1487C94.768 18.9459 94.4727 18.8149 93.8901 18.4993C93.3073 18.1834 92.914 17.955 92.2593 17.5647C91.6071 17.1744 91.2499 16.9845 90.6235 16.5481C89.997 16.1116 89.6528 15.849 89.1265 15.3792C88.5975 14.9118 88.3408 14.6727 87.9839 14.2053C87.627 13.7406 87.4925 13.4612 87.3462 13.053C87.1973 12.6421 87.1974 12.472 87.2437 12.1536C87.2873 11.8355 87.3772 11.6582 87.5747 11.4631C87.7749 11.2681 87.9729 11.2066 88.2397 11.1809ZM18.9595 14.0159C19.0314 13.8721 19.1213 13.8517 19.2651 13.9133C19.4063 13.9775 19.4634 14.036 19.6714 14.3313C19.8819 14.6291 20.0508 14.8914 20.3101 15.3997C20.5694 15.9055 20.7108 16.2782 20.9624 16.8713C21.2166 17.4671 21.33 17.8498 21.5688 18.3762C21.8076 18.9025 21.9902 19.1597 22.1597 19.5012C22.3289 19.8424 22.3367 19.9867 22.4214 20.0842C22.5033 20.1814 22.5165 20.1427 22.5806 19.9915C22.6473 19.8425 22.6571 19.7444 22.7495 19.3284C22.8419 18.9125 22.8837 18.5121 23.0454 17.9114C23.2072 17.3132 23.2967 16.8816 23.561 16.3323C23.828 15.7854 24.0312 15.4564 24.3726 15.1663C24.7167 14.8761 24.8997 14.8349 25.2798 14.8811C25.6622 14.9274 25.8957 15.0817 26.2808 15.4026C26.6659 15.7209 26.8482 16.0007 27.2075 16.4807C27.5695 16.9608 27.7113 17.3101 28.0835 17.803C28.4533 18.2935 28.6695 18.5349 29.0649 18.9407C29.4604 19.3438 29.6781 19.5475 30.0581 19.8274C30.4406 20.1047 30.6308 20.2049 30.9722 20.3333C31.3111 20.4591 31.4762 20.4821 31.7612 20.4641C32.046 20.4461 32.1691 20.3994 32.395 20.2454C32.621 20.0887 32.7088 19.9679 32.8911 19.6829C33.0733 19.398 33.1788 19.2309 33.3071 18.8176C33.4355 18.4043 33.4223 18.1114 33.5327 17.6184C33.6431 17.128 33.6945 16.7297 33.8589 16.3625C34.0257 15.9957 34.1413 15.8288 34.3618 15.7825C34.5852 15.7388 34.7242 15.8646 34.9731 16.134C35.2197 16.4062 35.3616 16.6893 35.603 17.1438C35.8442 17.5981 35.9213 17.9448 36.1831 18.4094C36.4475 18.8741 36.5808 19.1439 36.9146 19.47C37.2458 19.7961 37.4466 19.8657 37.8472 20.0403C38.2476 20.2174 38.5148 20.2841 38.9204 20.3508C39.3261 20.4202 39.5063 20.454 39.8735 20.3821C40.2404 20.3102 40.4046 20.2146 40.7534 19.9915C41.1027 19.768 41.3243 19.6212 41.6196 19.2668C41.9146 18.9102 41.9943 18.6663 42.2329 18.2122C42.4717 17.7576 42.5774 17.4361 42.811 16.9944C43.0446 16.5555 43.1445 16.2985 43.396 16.011C43.6502 15.7234 43.7866 15.5952 44.0767 15.5618C44.3668 15.5258 44.5416 15.6026 44.8472 15.8362C45.1553 16.0673 45.2891 16.332 45.605 16.7249C45.9233 17.1151 46.0596 17.3589 46.437 17.7903C46.817 18.2217 47.0557 18.4889 47.5024 18.8792C47.9493 19.2669 48.2188 19.4855 48.6733 19.7346C49.1279 19.9811 49.3361 20.0323 49.7778 20.1145C50.222 20.1992 50.4738 20.1811 50.8872 20.1477C51.3005 20.1117 51.5243 20.0019 51.8452 19.9377C52.1634 19.8762 52.2737 19.8779 52.4868 19.8342C52.6998 19.7906 52.7897 19.699 52.9077 19.7219C53.0232 19.745 53.1055 19.8166 53.0747 19.9475C53.0439 20.0785 52.957 20.2203 52.7593 20.3821C52.559 20.5438 52.4352 20.6252 52.0757 20.7561C51.7162 20.8845 51.4489 20.9926 50.9585 21.0286C50.4683 21.067 50.1628 21.044 49.6265 20.9465C49.0872 20.849 48.8221 20.8004 48.27 20.5461C47.7155 20.292 47.3868 20.0762 46.8579 19.6731C46.329 19.27 46.0543 18.9898 45.6255 18.5276C45.1966 18.0654 44.9913 17.803 44.7114 17.3665C44.4342 16.9275 44.3494 16.6196 44.2339 16.3372C44.1183 16.0521 44.1667 15.9366 44.1333 15.9495C44.1 15.9624 44.1536 16.1064 44.0688 16.4016C43.9841 16.6968 43.9068 16.9662 43.7144 17.4231C43.5218 17.8802 43.3807 18.1937 43.106 18.6868C42.8286 19.1798 42.708 19.4755 42.3306 19.8889C41.9506 20.3022 41.6729 20.4942 41.2134 20.7561C40.7511 21.018 40.5122 21.1112 40.0269 21.1985C39.5418 21.2883 39.2927 21.2752 38.7896 21.2034C38.2837 21.1289 38.0013 21.0412 37.5083 20.8333C37.0127 20.6227 36.7684 20.5204 36.314 20.1584C35.8569 19.7964 35.585 19.5263 35.228 19.0178C34.9451 18.6149 34.79 18.2974 34.6431 17.926C34.5394 18.4187 34.4303 18.7254 34.229 19.1721C34.0159 19.642 33.8845 19.8577 33.6021 20.2043C33.317 20.5536 33.168 20.7134 32.811 20.9163C32.4544 21.1215 32.236 21.1905 31.8179 21.2239C31.3993 21.2598 31.1677 21.2236 30.7183 21.0901C30.269 20.954 30.0375 20.8363 29.5728 20.5461C29.1106 20.2534 28.8669 20.0451 28.4048 19.6292C27.94 19.2106 27.6804 18.959 27.2593 18.4583C26.8381 17.9575 26.6274 17.6157 26.3013 17.1252C25.9727 16.6349 25.855 16.3521 25.6265 16.0081C25.3956 15.6617 25.2974 15.48 25.1538 15.3977C25.01 15.3155 25.0145 15.3355 24.9067 15.5999C24.7989 15.8644 24.7506 16.1884 24.6196 16.72C24.4887 17.254 24.4373 17.6622 24.2524 18.2629C24.065 18.8613 23.9519 19.2905 23.6899 19.7219C23.4306 20.1532 23.2427 20.261 22.9448 20.4202C22.6471 20.5767 22.4957 20.5999 22.2056 20.51C21.918 20.4201 21.8073 20.3016 21.4966 19.9729C21.1886 19.6418 20.9806 19.3849 20.6597 18.8586C20.3387 18.3349 20.182 17.9497 19.897 17.3489C19.6145 16.7506 19.442 16.406 19.2417 15.8616C19.0441 15.3201 18.9593 15.0069 18.9028 14.6399C18.8464 14.2703 18.8876 14.1621 18.9595 14.0159ZM198.945 12.0022C199.402 11.9714 199.654 12.0387 200.008 12.2004C200.362 12.3647 200.53 12.5004 200.722 12.8186C200.912 13.1369 200.971 13.3813 200.968 13.7893C200.966 14.1774 200.923 14.4286 200.736 14.801C201.03 14.7221 201.209 14.7525 201.469 14.9124C201.741 15.0792 201.836 15.2971 202.057 15.6487C202.278 16.0004 202.358 16.2471 202.576 16.6731C202.791 17.1019 202.825 17.4205 203.141 17.7903C203.454 18.16 203.678 18.2551 204.15 18.5247C204.625 18.7917 204.977 18.9383 205.508 19.136C206.04 19.3312 206.297 19.4034 206.808 19.5061C207.316 19.6113 207.645 19.6212 208.056 19.6545C208.469 19.6905 208.598 19.6623 208.865 19.6829C209.134 19.7008 209.278 19.688 209.394 19.7522C209.512 19.8164 209.535 19.9018 209.448 20.0071C209.36 20.1148 209.237 20.1792 208.959 20.2844C208.68 20.3871 208.518 20.4971 208.053 20.5305C207.588 20.5613 207.208 20.5437 206.633 20.4436C206.058 20.346 205.77 20.2511 205.177 20.0354C204.584 19.8197 204.222 19.6804 203.669 19.3645C203.118 19.0462 202.832 18.8869 202.414 18.4504C201.995 18.0141 201.826 17.6674 201.577 17.1848C201.328 16.702 201.269 16.4139 201.171 16.0364C201.074 15.659 201.122 15.438 201.083 15.2942C201.048 15.1535 201.091 15.1739 200.989 15.3225C200.886 15.4715 200.825 15.7058 200.568 16.0422C200.309 16.3785 200.098 16.64 199.7 17.0071C199.302 17.3743 199.052 17.5953 198.575 17.8752C198.1 18.155 197.83 18.2912 197.317 18.4016C196.803 18.512 196.477 18.5146 196.007 18.4299C195.537 18.3426 195.303 18.2451 194.969 17.9729C194.869 17.891 194.782 17.8148 194.706 17.7375C194.532 17.7691 194.345 17.8025 194.137 17.8391C193.118 18.0163 192.537 18.1119 191.469 18.2249C190.401 18.3404 189.823 18.402 188.796 18.4045C187.769 18.4097 187.219 18.3532 186.333 18.2454C185.445 18.1375 184.985 18.1062 184.359 17.8674C183.732 17.6286 183.501 17.4204 183.201 17.0481C182.9 16.6734 182.859 16.4451 182.851 16.0012C182.843 15.557 182.916 15.274 183.167 14.8323C183.416 14.3908 183.665 14.1622 184.107 13.7952C184.546 13.4254 184.839 13.253 185.366 12.9885C185.895 12.7241 186.213 12.5776 186.75 12.4749C187.286 12.3747 187.612 12.4079 188.051 12.4797C188.493 12.5516 188.691 12.6647 188.951 12.8342C189.212 13.0062 189.317 13.1738 189.356 13.3381C189.394 13.5049 189.289 13.6155 189.145 13.6643C189.004 13.7127 188.883 13.6201 188.642 13.5842C188.403 13.5509 188.28 13.5043 187.944 13.4915C187.605 13.4786 187.378 13.4354 186.955 13.5227C186.529 13.61 186.266 13.7181 185.817 13.926C185.368 14.1339 185.093 14.2881 184.706 14.5627C184.32 14.8401 184.117 15.0122 183.886 15.3049C183.655 15.5975 183.584 15.7772 183.55 16.0286C183.514 16.2802 183.491 16.3808 183.714 16.5657C183.938 16.7531 184.115 16.8042 184.665 16.9583C185.214 17.1149 185.633 17.2073 186.462 17.3459C187.292 17.482 187.823 17.6086 188.809 17.6497C189.798 17.6907 190.36 17.6444 191.403 17.552C192.443 17.457 193.026 17.3593 194.019 17.177C194.136 17.1553 194.246 17.1326 194.351 17.1125C194.347 17.0966 194.341 17.0803 194.337 17.0637C194.232 16.6273 194.274 16.3063 194.441 15.7903C194.605 15.2741 194.787 14.9917 195.167 14.4807C195.548 13.9671 195.825 13.646 196.333 13.2249C196.844 12.8013 197.193 12.6084 197.714 12.3645C198.238 12.1205 198.485 12.0356 198.945 12.0022ZM51.1724 7.54712C51.2212 7.31095 51.3384 7.27021 51.5181 7.43188C51.6978 7.59623 51.8448 7.82964 52.0708 8.35864C52.2942 8.88501 52.3587 9.29608 52.6411 10.0715C52.9261 10.8469 53.1235 11.3683 53.4907 12.2336C53.8399 13.0566 54.0597 13.5565 54.4204 14.2815C54.5037 14.2751 54.5903 14.2687 54.6802 14.262C55.5634 14.1952 56.0208 14.1984 56.8296 14.1907C57.6382 14.1855 57.9849 14.1873 58.7241 14.2258C59.4662 14.2643 59.903 14.3013 60.5347 14.386C61.1689 14.4707 61.4337 14.5444 61.8882 14.6497C62.3451 14.7549 62.5429 14.8115 62.8149 14.9065C63.0871 15.0041 63.1673 15.0432 63.2495 15.1331C63.3288 15.2228 63.3238 15.29 63.2212 15.3567C63.1185 15.4234 63.0334 15.4485 62.7407 15.469C62.448 15.4921 62.2215 15.5052 61.7593 15.4641C61.2973 15.423 61.043 15.3377 60.4243 15.2659C59.8055 15.1914 59.3894 15.1512 58.6704 15.0999C57.954 15.0485 57.6176 15.0074 56.8345 15.01C56.0776 15.0125 55.6349 15.0202 54.8413 15.1018C55.0349 15.4626 55.2049 15.7513 55.4604 16.175C55.8585 16.8324 56.1408 17.1437 56.4644 17.6907C56.7904 18.2376 56.9169 18.5069 57.0786 18.9075C57.243 19.3081 57.276 19.4291 57.2837 19.6936C57.2914 19.9579 57.2321 20.0681 57.1167 20.2297C56.9987 20.3914 56.8601 20.479 56.7036 20.5022C56.547 20.5227 56.3819 20.4637 56.3306 20.343C56.2769 20.2222 56.3697 19.9885 56.439 19.8987C56.5109 19.8092 56.6213 19.8784 56.688 19.8938C56.7546 19.9119 56.7546 20.0012 56.77 19.9807C56.7856 19.9603 56.8337 19.9395 56.7622 19.7913C56.6929 19.6449 56.6264 19.5727 56.4185 19.2415C56.2131 18.9128 56.0611 18.6716 55.73 18.1428C55.3961 17.6113 55.1418 17.2719 54.7515 16.594C54.4403 16.057 54.2657 15.716 54.0044 15.1995C53.5418 15.2614 53.1365 15.3338 52.5972 15.4592C51.7911 15.6441 51.3649 15.8522 50.7231 16.0422C50.0837 16.2323 49.8261 16.3061 49.3921 16.4114C48.9609 16.5141 48.7607 16.5964 48.563 16.5579C48.3654 16.5193 48.3015 16.4016 48.4067 16.2219C48.512 16.0448 48.6887 15.9059 49.0864 15.6672C49.4845 15.4284 49.7344 15.2532 50.397 15.0247C51.0618 14.7988 51.5502 14.6787 52.4077 14.5247C52.854 14.4456 53.2121 14.3956 53.5786 14.3567C53.2792 13.7624 53.051 13.2975 52.7153 12.5774C52.3122 11.707 52.0426 11.1908 51.7524 10.3948C51.4623 9.60133 51.3875 9.1748 51.272 8.60474C51.1539 8.03489 51.1236 7.78076 51.1724 7.54712ZM7.83838 12.6877C8.18729 12.6083 8.41333 12.7009 8.77002 12.9036C9.12691 13.1064 9.25521 13.2634 9.62744 13.7024C9.96361 14.1039 10.1717 14.4327 10.5171 14.9426C11.004 14.976 11.3493 15.0684 11.8726 15.2737C12.4682 15.5073 12.7484 15.7031 13.2876 16.0959C13.8266 16.4912 14.135 16.758 14.5688 17.2483C15.0027 17.7386 15.2258 18.0883 15.4517 18.5452C15.6801 19.0021 15.6805 19.2131 15.7036 19.5364C15.7242 19.8599 15.6852 19.9782 15.562 20.1604C15.4388 20.3427 15.3235 20.4147 15.0874 20.4456C14.8512 20.4764 14.7173 20.4617 14.3784 20.3127C14.0421 20.1664 13.8342 20.0223 13.3979 19.7092C12.9614 19.3959 12.6936 19.2108 12.1929 18.7434C11.6948 18.2736 11.4025 17.9598 10.9019 17.3616C10.4318 16.7999 10.1449 16.408 9.76318 15.8586C9.54721 15.9046 9.34914 15.9771 9.08838 16.052C8.63906 16.1804 8.39487 16.3009 8.04053 16.4524C7.6864 16.6038 7.51961 16.7017 7.31689 16.8069C7.11403 16.9122 7.07272 16.9383 7.02393 16.9768C6.9779 17.0126 7.03694 16.9539 7.08057 16.9924C7.12452 17.0334 7.25742 17.0743 7.23975 17.1741C7.22177 17.2717 7.10567 17.4644 6.99268 17.4875C6.8798 17.5129 6.75896 17.426 6.67432 17.2952C6.58962 17.1617 6.53398 17.0384 6.56982 16.8254C6.60578 16.6123 6.63634 16.4679 6.85205 16.2317C7.07025 15.9981 7.25784 15.8621 7.65576 15.6516C8.05368 15.4411 8.31548 15.3227 8.84424 15.179C8.99037 15.1394 9.12147 15.1022 9.24658 15.0686C9.0831 14.8005 8.94932 14.5662 8.79053 14.3059C8.51588 13.8516 8.4618 13.6796 8.31299 13.4768C8.16148 13.2739 8.12563 13.2304 8.04346 13.2971C7.9615 13.3614 7.99163 13.5561 7.90186 13.8049C7.80941 14.054 7.72473 14.2777 7.5835 14.5422C7.44231 14.8067 7.35498 15.0274 7.1958 15.1301C7.03662 15.2328 6.8958 15.2276 6.79053 15.053C6.68271 14.881 6.61293 14.6116 6.66162 14.26C6.71039 13.9109 6.79278 13.6128 7.02881 13.2971C7.26506 12.9838 7.49171 12.7674 7.83838 12.6877ZM267.707 14.5139C268.043 14.5165 268.241 14.5733 268.505 14.7659C268.772 14.9584 268.924 15.1277 269.04 15.4768C269.153 15.826 269.183 16.0905 269.083 16.509C268.982 16.9276 268.834 17.1873 268.534 17.5725C268.297 17.8785 268.138 18.0709 267.844 18.2756C268.098 18.4612 268.314 18.5756 268.729 18.7405C269.25 18.9458 269.597 19.0309 270.247 19.1516C270.894 19.2697 271.238 19.3362 271.964 19.3362C272.694 19.3387 273.161 19.257 273.885 19.1594C274.607 19.0618 274.979 18.9362 275.583 18.8489C276.186 18.759 276.617 18.6769 276.9 18.718C277.182 18.7617 277.221 18.874 276.995 19.0588C276.771 19.2437 276.373 19.4293 275.78 19.6399C275.187 19.8478 274.791 19.9783 274.029 20.1067C273.266 20.2351 272.755 20.2844 271.964 20.2844C271.173 20.2819 270.793 20.2306 270.074 20.1047C269.352 19.9764 268.98 19.8942 268.364 19.6477C267.75 19.4012 267.458 19.2595 267.003 18.8694C266.957 18.8303 266.913 18.7911 266.872 18.7532C266.659 18.8207 266.431 18.8779 266.148 18.9465C265.544 19.0955 265.2 19.1231 264.566 19.177C263.932 19.2283 263.603 19.2541 262.982 19.2053C262.358 19.1591 262.013 19.0674 261.454 18.9338C260.894 18.8003 260.66 18.718 260.18 18.5383C259.703 18.3586 259.469 18.2835 259.063 18.0344C258.655 17.7879 258.434 17.5876 258.149 17.3C257.861 17.0099 257.794 16.8019 257.635 16.5862C257.476 16.3731 257.448 16.2628 257.35 16.2268C257.255 16.1909 257.275 16.2216 257.155 16.4065C257.032 16.5914 256.962 16.8304 256.736 17.1565C256.513 17.4824 256.328 17.683 256.036 18.0422C255.743 18.3992 255.612 18.6461 255.27 18.9465C254.929 19.2494 254.71 19.3954 254.331 19.552C253.953 19.7112 253.747 19.7504 253.373 19.7375C252.998 19.7221 252.81 19.6732 252.456 19.4807C252.099 19.2881 251.901 19.1358 251.595 18.7737C251.29 18.4117 251.148 18.1191 250.927 17.6672C250.707 17.2155 250.599 16.9355 250.489 16.512C250.378 16.0883 250.358 15.8566 250.371 15.551C250.386 15.2431 250.453 15.0965 250.563 14.9758C250.676 14.858 250.804 14.8709 250.927 14.9553C251.051 15.0375 251.059 15.156 251.179 15.3948C251.3 15.6336 251.372 15.7931 251.531 16.1526C251.69 16.512 251.801 16.7818 251.973 17.1926C252.145 17.6058 252.209 17.8885 252.389 18.217C252.566 18.5429 252.668 18.6692 252.869 18.8284C253.066 18.9876 253.165 19.0206 253.38 19.0129C253.593 19.0026 253.701 18.9384 253.94 18.7844C254.179 18.6279 254.315 18.5123 254.574 18.2327C254.83 17.9503 254.949 17.7215 255.226 17.3801C255.503 17.0413 255.67 16.833 255.96 16.5276C256.251 16.222 256.384 16.0239 256.677 15.8518C256.97 15.6798 257.127 15.6463 257.427 15.6643C257.73 15.6823 257.897 15.7726 258.187 15.9446C258.477 16.1166 258.593 16.2785 258.878 16.5276C259.163 16.7765 259.281 16.9642 259.607 17.1926C259.936 17.4212 260.101 17.5055 260.514 17.6672C260.925 17.8264 261.161 17.8775 261.669 17.9905C262.18 18.1009 262.493 18.1806 263.058 18.2268C263.62 18.2705 263.914 18.2581 264.492 18.217C265.069 18.1734 265.406 18.127 265.943 18.0217C266.045 18.0018 266.138 17.9817 266.226 17.9651C266.178 17.8815 266.132 17.794 266.086 17.7004C265.863 17.2383 265.883 16.9944 265.888 16.5579C265.893 16.1189 265.922 15.87 266.107 15.5081C266.294 15.1485 266.497 14.9476 266.818 14.7473C267.136 14.5496 267.368 14.5088 267.707 14.5139ZM11.1714 15.9553C11.3256 16.2003 11.4859 16.4456 11.6978 16.7297C12.1446 17.3255 12.4068 17.6161 12.8511 18.0784C13.2926 18.5429 13.5391 18.7233 13.9165 19.0442C14.2938 19.3675 14.492 19.501 14.7358 19.6858C14.8471 19.768 14.9225 19.8189 14.98 19.8567C14.9628 19.8378 14.9429 19.8177 14.9233 19.7932C14.7796 19.6135 14.7173 19.4805 14.4683 19.1262C14.2167 18.7694 14.032 18.4635 13.6675 18.0168C13.3028 17.57 13.0739 17.277 12.645 16.8918C12.2189 16.5093 11.9982 16.3165 11.5259 16.1008C11.3964 16.041 11.2805 15.9938 11.1714 15.9553ZM148.326 13.1145C148.436 13.053 148.52 13.0457 148.63 13.1174C148.741 13.1893 148.808 13.2427 148.873 13.4788C148.934 13.7123 148.921 13.9077 148.944 14.2952C148.967 14.6829 148.949 14.8966 148.988 15.4153C149.026 15.9366 149.058 16.3219 149.137 16.8997C149.217 17.4773 149.291 17.7882 149.386 18.3069C149.481 18.823 149.635 19.2215 149.607 19.4885C149.579 19.7525 149.465 19.8191 149.248 19.6399C149.032 19.4602 148.764 19.0954 148.523 18.5872C148.284 18.0787 148.184 17.7132 148.045 17.0969C147.909 16.4784 147.873 16.0625 147.837 15.4954C147.799 14.9304 147.814 14.6754 147.863 14.262C147.912 13.8489 147.986 13.6563 148.079 13.428C148.171 13.1994 148.215 13.1787 148.326 13.1145ZM123.869 10.1379C123.956 9.94556 124.066 9.92753 124.215 10.0764C124.362 10.2279 124.443 10.4105 124.605 10.8879C124.764 11.3656 124.852 11.7486 125.019 12.4651C125.183 13.1812 125.278 13.705 125.432 14.47C125.586 15.2352 125.64 15.6078 125.787 16.2883C125.93 16.9663 126.018 17.3464 126.154 17.8625C126.287 18.3787 126.385 18.5791 126.462 18.8616C126.539 19.1437 126.49 19.1567 126.537 19.2747C126.583 19.3928 126.681 19.3776 126.691 19.4495C126.701 19.5187 126.673 19.6136 126.585 19.6292C126.501 19.6446 126.4 19.6213 126.256 19.5237C126.113 19.4263 126.051 19.4235 125.864 19.1438C125.676 18.8665 125.522 18.6612 125.317 18.135C125.114 17.6062 125.022 17.195 124.847 16.5071C124.67 15.8189 124.626 15.4534 124.441 14.6907C124.254 13.9283 124.048 13.4251 123.915 12.6936C123.781 11.9617 123.783 11.5425 123.773 11.0315C123.763 10.5207 123.781 10.3279 123.869 10.1379ZM233.828 6.52271C233.933 6.38407 234.043 6.38662 234.167 6.49438C234.292 6.60224 234.323 6.70741 234.452 7.06177C234.58 7.41865 234.688 7.69084 234.811 8.26587C234.937 8.84366 234.966 9.21148 235.079 9.94849C235.192 10.6853 235.23 11.1606 235.381 11.9514C235.533 12.7446 235.661 13.1862 235.833 13.9153C236.006 14.6445 236.098 14.976 236.242 15.5999C236.383 16.2213 236.457 16.5144 236.544 17.0305C236.632 17.5465 236.65 17.8033 236.678 18.178C236.706 18.5503 236.714 18.6794 236.683 18.8977C236.652 19.1132 236.598 19.193 236.524 19.2649C236.45 19.339 236.386 19.3209 236.314 19.262C236.242 19.2003 236.25 19.1538 236.167 18.9612C236.085 18.7688 235.99 18.656 235.9 18.302C235.813 17.9451 235.823 17.6801 235.723 17.1819C235.626 16.6812 235.558 16.4115 235.402 15.803C235.248 15.1944 235.129 14.8658 234.942 14.134C234.754 13.4022 234.649 12.945 234.464 12.1438C234.282 11.3452 234.167 10.8726 234.023 10.1331C233.879 9.39623 233.82 9.03923 233.746 8.45142C233.671 7.86079 233.631 7.57001 233.646 7.18481C233.664 6.80002 233.725 6.66126 233.828 6.52271ZM244.202 15.0149C245.052 14.9635 245.537 14.9505 246.285 15.0686C247.032 15.1867 247.417 15.3204 247.938 15.6028C248.459 15.8853 248.678 16.0958 248.894 16.4758C249.107 16.8532 249.112 17.1231 249.012 17.4954C248.912 17.8676 248.74 18.0472 248.388 18.3372C248.036 18.6299 247.769 18.7791 247.252 18.9563C246.739 19.1334 246.384 19.1872 245.817 19.218C245.25 19.2488 244.913 19.195 244.42 19.1077C243.93 19.0229 243.729 18.9466 243.357 18.7874C242.987 18.6307 242.836 18.5169 242.572 18.3167C242.305 18.119 242.186 18.0114 242.03 17.7932C241.873 17.5725 241.837 17.4185 241.786 17.2209C241.737 17.0208 241.742 16.9382 241.781 16.7971C241.817 16.6586 241.85 16.5837 241.97 16.5247C242.088 16.4657 242.253 16.4628 242.378 16.5012C242.504 16.5397 242.538 16.6278 242.597 16.7151C242.656 16.8021 242.633 16.8459 242.676 16.9407C242.717 17.0357 242.71 17.0771 242.81 17.1926C242.91 17.3055 242.995 17.3698 243.18 17.511C243.365 17.6496 243.458 17.7777 243.735 17.8958C244.015 18.0113 244.169 18.0423 244.575 18.0911C244.98 18.1424 245.286 18.1657 245.766 18.1477C246.246 18.1272 246.542 18.088 246.973 17.9905C247.404 17.8904 247.635 17.7902 247.925 17.6516C248.215 17.5104 248.347 17.4466 248.426 17.2952C248.503 17.1437 248.496 17.0535 248.319 16.8918C248.142 16.7301 247.98 16.6374 247.541 16.4885C247.101 16.3396 246.778 16.2394 246.121 16.1418C245.463 16.0443 245.024 15.9669 244.256 16.0002C243.486 16.0336 242.959 16.1625 242.279 16.3088C241.598 16.4552 241.305 16.5914 240.853 16.7327C240.404 16.8738 240.242 16.9353 240.024 17.0149C239.806 17.0945 239.839 17.1309 239.759 17.136C239.682 17.1411 239.636 17.1407 239.636 17.0432C239.634 16.9457 239.574 16.8607 239.751 16.6477C239.926 16.4346 240.06 16.2417 240.52 15.9797C240.977 15.7154 241.309 15.5228 242.045 15.3303C242.78 15.1378 243.355 15.0688 244.202 15.0149ZM99.0278 12.8606C99.1304 12.817 99.254 12.796 99.3618 12.842C99.4697 12.8883 99.4986 12.9422 99.5679 13.0911C99.6346 13.2374 99.6679 13.312 99.6987 13.5813C99.7295 13.8535 99.7291 14.0645 99.7163 14.4446C99.7009 14.8272 99.6422 15.0713 99.6294 15.4924C99.614 15.9109 99.5982 16.1831 99.647 16.5452C99.6932 16.9045 99.7398 17.0277 99.8706 17.2971C99.999 17.5641 100.138 17.698 100.294 17.8879C100.451 18.078 100.569 18.1118 100.657 18.2454C100.741 18.3762 100.725 18.4664 100.728 18.551C100.73 18.6329 100.677 18.6308 100.669 18.6565C100.66 18.6815 100.7 18.6489 100.685 18.677C100.672 18.7079 100.692 18.7716 100.597 18.8049C100.505 18.8383 100.407 18.9125 100.22 18.8459C100.03 18.7766 99.8781 18.6974 99.6548 18.469C99.4314 18.2379 99.295 18.0397 99.105 17.6956C98.915 17.3516 98.8308 17.1818 98.7075 16.7454C98.5869 16.309 98.5255 15.9881 98.4946 15.5159C98.4612 15.0434 98.5146 14.7782 98.5454 14.3801C98.5736 13.9822 98.5785 13.7842 98.6401 13.5198C98.7018 13.258 98.7741 13.1962 98.8511 13.0627C98.9304 12.9322 98.9283 12.9066 99.0278 12.8606ZM296.876 16.7043C296.835 16.6531 296.82 16.7145 296.804 16.8889C296.789 17.0634 296.779 17.2717 296.804 17.5745C296.827 17.8749 296.797 18.0963 296.925 18.3967C296.993 18.5551 297.047 18.6732 297.128 18.7825C297.229 18.51 297.214 18.3137 297.203 18.009C297.19 17.6548 297.072 17.4108 297.007 17.1516C296.941 16.8897 296.915 16.7557 296.876 16.7043ZM157.336 11.3684C157.552 11.3736 157.677 11.4149 157.767 11.5227C157.854 11.6331 157.829 11.7994 157.783 11.9124C157.737 12.0278 157.64 12.0053 157.532 12.095C157.421 12.1874 157.403 12.2262 157.236 12.3674C157.072 12.506 156.892 12.5728 156.705 12.7961C156.515 13.0221 156.434 13.1557 156.291 13.4895C156.147 13.823 156.06 14.0696 155.991 14.4622C155.919 14.8549 155.908 15.0915 155.939 15.4534C155.972 15.8155 156.016 16.0396 156.147 16.2708C156.28 16.5017 156.376 16.5377 156.602 16.6096C156.828 16.6814 156.987 16.6789 157.272 16.6301C157.559 16.5788 157.757 16.5142 158.032 16.3577C158.307 16.2036 158.455 16.0877 158.648 15.8489C158.841 15.6101 158.931 15.4589 158.998 15.1663C159.029 15.029 159.04 14.9193 159.038 14.8088C158.918 14.6746 158.81 14.5311 158.703 14.3518C158.459 13.9412 158.379 13.6077 158.356 13.2766C158.335 12.9453 158.451 12.8165 158.597 12.6907C158.746 12.5649 158.89 12.5417 159.095 12.6418C159.301 12.742 159.457 12.8731 159.626 13.1965C159.732 13.4019 159.807 13.5989 159.861 13.8264C160.016 14.0809 160.108 14.2874 160.343 14.5549C160.623 14.8759 160.816 15.0149 161.163 15.2717C161.509 15.5283 161.712 15.6543 162.074 15.8391C162.436 16.0214 162.642 16.0927 162.97 16.1877C163.296 16.2853 163.466 16.3144 163.708 16.3196C163.951 16.3273 164.057 16.3191 164.185 16.219C164.311 16.1189 164.321 16.0311 164.346 15.8206C164.372 15.6128 164.357 15.4817 164.313 15.1711C164.272 14.858 164.159 14.6397 164.136 14.2649C164.111 13.89 164.079 13.584 164.195 13.2913C164.31 12.996 164.475 12.8526 164.711 12.7961C164.948 12.7423 165.071 12.8117 165.374 13.012C165.677 13.2123 165.888 13.4273 166.224 13.7971C166.558 14.1669 166.758 14.486 167.053 14.8635C167.348 15.2382 167.459 15.4691 167.703 15.677C167.944 15.885 168.037 15.8882 168.268 15.9036C168.499 15.9189 168.592 15.8752 168.859 15.7571C169.123 15.639 169.254 15.5438 169.593 15.3127C169.932 15.0817 170.117 14.907 170.548 14.5989C170.98 14.2882 171.304 14.0564 171.75 13.7688C172.197 13.4814 172.402 13.3173 172.78 13.1633C173.16 13.0118 173.306 12.9602 173.645 13.0012C173.986 13.0397 174.187 13.1325 174.482 13.3635C174.78 13.5972 174.852 13.8105 175.129 14.1624C175.407 14.5166 175.54 14.7708 175.869 15.1301C176.197 15.4896 176.396 15.682 176.773 15.9592C177.148 16.2391 177.366 16.3472 177.749 16.5217C178.131 16.6988 178.383 16.7272 178.691 16.8401C179.002 16.9505 179.13 17.0104 179.294 17.0823C179.459 17.1516 179.467 17.1567 179.518 17.1926C179.52 17.194 179.522 17.1953 179.524 17.1965C179.603 17.0954 179.688 16.9989 179.737 16.9661C179.834 16.8975 179.831 17.0355 179.833 17.1252C179.833 17.215 179.788 17.3178 179.742 17.4153C179.693 17.5129 179.7 17.5438 179.592 17.6106C179.484 17.6748 179.423 17.7286 179.197 17.7415C178.971 17.7517 178.824 17.7446 178.462 17.6702C178.1 17.5957 177.836 17.552 177.386 17.3723C176.937 17.1926 176.675 17.0714 176.213 16.7737C175.751 16.4732 175.468 16.2784 175.078 15.8752C174.687 15.4695 174.495 15.1479 174.264 14.7473C174.033 14.3494 174.056 14.1179 173.92 13.8792C173.787 13.643 173.738 13.5685 173.591 13.5608C173.445 13.5531 173.427 13.6202 173.188 13.8411C172.952 14.0593 172.803 14.3191 172.4 14.6555C171.997 14.9919 171.64 15.2255 171.172 15.5208C170.705 15.8185 170.479 15.9442 170.066 16.1418C169.65 16.337 169.47 16.4169 169.1 16.5042C168.733 16.5915 168.586 16.6044 168.221 16.5813C167.857 16.5557 167.68 16.5627 167.277 16.3831C166.874 16.2008 166.619 16.0317 166.211 15.675C165.846 15.3555 165.592 15.0849 165.329 14.7297C165.325 14.8638 165.317 15.0024 165.302 15.1614C165.264 15.5438 165.248 15.7315 165.112 16.0549C164.976 16.3758 164.891 16.5635 164.622 16.7766C164.355 16.9871 164.144 17.0586 163.769 17.1125C163.397 17.169 163.173 17.136 162.754 17.0461C162.336 16.9563 162.1 16.8636 161.673 16.6633C161.247 16.4656 161.044 16.322 160.625 16.0549C160.294 15.8433 160.073 15.7222 159.803 15.5129C159.707 15.8585 159.615 16.0799 159.375 16.4036C159.109 16.7707 158.903 16.9816 158.502 17.2024C158.099 17.4232 157.796 17.4849 157.362 17.5081C156.93 17.5312 156.709 17.4743 156.334 17.3176C155.96 17.1636 155.756 17.0767 155.487 16.7327C155.22 16.3886 155.089 16.0826 154.992 15.5999C154.892 15.1148 154.927 14.8092 154.994 14.3088C155.063 13.8081 155.154 13.5328 155.333 13.0911C155.511 12.6496 155.618 12.4231 155.89 12.1047C156.162 11.7864 156.402 11.6505 156.692 11.5042C156.982 11.3554 157.121 11.3658 157.336 11.3684ZM268.097 15.3303C267.989 15.2534 267.91 15.2583 267.758 15.2942C267.607 15.3301 267.504 15.3793 267.342 15.51C267.181 15.641 267.064 15.7393 266.949 15.9524C266.831 16.1627 266.766 16.3064 266.761 16.5706C266.754 16.835 266.738 16.9666 266.913 17.2747C266.996 17.4236 267.083 17.5547 267.189 17.6838C267.574 17.4953 267.672 17.3444 267.894 17.0686C268.115 16.7914 268.21 16.5783 268.292 16.301C268.375 16.0265 268.341 15.8799 268.302 15.6848C268.264 15.4898 268.208 15.4099 268.097 15.3303ZM198.52 16.7161C197.874 17.0055 197.433 17.1092 196.567 17.3333C196.287 17.4056 196.043 17.463 195.808 17.5159C195.896 17.5272 195.995 17.5357 196.118 17.5413C196.459 17.5541 196.706 17.5545 197.096 17.4543C197.486 17.3543 197.692 17.2772 198.074 17.0413C198.251 16.9313 198.388 16.8269 198.52 16.7161ZM199.715 12.9241C199.51 12.8599 199.369 12.804 199.063 12.8733C198.757 12.9452 198.596 13.0378 198.19 13.2766C197.784 13.5154 197.478 13.6996 197.032 14.0667C196.585 14.4338 196.318 14.7063 195.956 15.1145C195.596 15.5201 195.414 15.7439 195.224 16.1057C195.037 16.4677 194.982 16.6709 195.018 16.925C195.02 16.9428 195.024 16.9597 195.027 16.9758C195.476 16.8791 195.868 16.7809 196.375 16.6321C197.214 16.3882 197.607 16.2267 198.22 15.9495C198.834 15.6722 199.068 15.5332 199.44 15.2483C199.815 14.9658 199.931 14.8242 200.083 14.5315C200.234 14.2416 200.203 14.0542 200.203 13.7874C200.203 13.5203 200.182 13.3657 200.084 13.1936C199.987 13.022 199.918 12.9882 199.715 12.9241ZM148.715 6.10864C148.967 6.08554 149.06 6.29902 149.006 6.49927C148.955 6.70208 148.59 6.8742 148.457 7.11548C148.326 7.35686 148.395 7.42127 148.346 7.7063C148.295 7.99134 148.328 8.36921 148.205 8.54126C148.084 8.71559 147.886 8.75402 147.74 8.57446C147.593 8.39477 147.473 8.03007 147.475 7.63989C147.478 7.24965 147.503 6.93077 147.752 6.62524C147.999 6.31979 148.464 6.13445 148.715 6.10864ZM98.019 7.82935C98.1474 7.84732 98.1867 8.08361 98.2329 8.15552C98.2791 8.22729 98.2428 8.16121 98.2505 8.19458C98.2589 8.22523 98.355 8.25075 98.2681 8.3147C98.1832 8.37899 97.9578 8.56361 97.8218 8.51489C97.6857 8.46353 97.5499 8.20434 97.5884 8.06567C97.6271 7.92978 97.888 7.81418 98.019 7.82935Z" fill="white"/>
</svg>
