<svg width="111" height="107" viewBox="0 0 111 107" fill="none" xmlns="http://www.w3.org/2000/svg">
<path d="M107 0C109.209 0 111 1.79086 111 4V103L110.995 103.206C110.891 105.251 109.251 106.891 107.206 106.995L107 107H4L3.79395 106.995C1.68056 106.888 0 105.14 0 103V4C1.2241e-06 1.79086 1.79086 5.23459e-08 4 0H107ZM4 2C2.89543 2 2 2.89543 2 4V103C2 104.105 2.89543 105 4 105H107C108.105 105 109 104.105 109 103V4C109 2.89543 108.105 2 107 2H4ZM20.0146 75.4219C20.3794 75.4219 20.7319 75.4796 21.0713 75.5938C21.4103 75.7079 21.7065 75.8742 21.96 76.0928C22.2168 76.3116 22.4017 76.5752 22.5127 76.8828L21.418 77.2773C21.3735 77.1506 21.2828 77.0353 21.1465 76.9307C21.0101 76.826 20.8441 76.7429 20.6475 76.6826C20.4508 76.6192 20.2398 76.5879 20.0146 76.5879C19.7895 76.5847 19.575 76.6212 19.3721 76.6973C19.1725 76.7702 19.0096 76.8703 18.8828 76.9971C18.756 77.1239 18.6924 77.2697 18.6924 77.4346C18.6924 77.647 18.7508 77.8072 18.8682 77.915C18.9887 78.0229 19.1488 78.1026 19.3486 78.1533C19.5484 78.2009 19.7705 78.2449 20.0146 78.2861C20.4586 78.3559 20.8697 78.4728 21.2471 78.6377C21.6243 78.8025 21.927 79.0231 22.1553 79.2988C22.3836 79.5715 22.498 79.9065 22.498 80.3027C22.498 80.7055 22.3836 81.0598 22.1553 81.3643C21.927 81.6654 21.6243 81.9003 21.2471 82.0684C20.8697 82.2364 20.4586 82.3203 20.0146 82.3203C19.6468 82.3203 19.2934 82.2626 18.9541 82.1484C18.618 82.0311 18.323 81.865 18.0693 81.6494C17.8156 81.4306 17.6335 81.1687 17.5225 80.8643L18.6113 80.4648C18.6557 80.5917 18.7464 80.7078 18.8828 80.8125C19.0191 80.917 19.1854 81.0011 19.3818 81.0645C19.5784 81.1279 19.7895 81.1592 20.0146 81.1592C20.2462 81.1592 20.4623 81.1245 20.6621 81.0547C20.8649 80.9818 21.0278 80.8816 21.1514 80.7549C21.2751 80.6249 21.3369 80.474 21.3369 80.3027C21.3368 80.1286 21.2723 79.9859 21.1426 79.875C21.0125 79.7608 20.8455 79.6701 20.6426 79.6035C20.4397 79.5369 20.2303 79.486 20.0146 79.4512C19.5422 79.3782 19.1183 79.2665 18.7441 79.1143C18.37 78.962 18.0733 78.751 17.8545 78.4814C17.6389 78.2119 17.5313 77.8627 17.5312 77.4346C17.5312 77.0319 17.6475 76.6801 17.8789 76.3789C18.1104 76.0777 18.4147 75.8429 18.792 75.6748C19.1694 75.5067 19.577 75.4219 20.0146 75.4219ZM46.0977 79.418C46.0977 79.7351 46.1561 80.0275 46.2734 80.2939C46.3939 80.5571 46.5652 80.7682 46.7871 80.9268C47.0122 81.0821 47.2853 81.1591 47.6055 81.1592C47.9288 81.1592 48.2019 81.082 48.4238 80.9268C48.6458 80.7682 48.8145 80.5571 48.9287 80.2939C49.0461 80.0275 49.1045 79.7351 49.1045 79.418V75.5361H50.2646V79.418C50.2646 79.8207 50.2021 80.1988 50.0752 80.5508C49.9483 80.8996 49.7669 81.2073 49.5322 81.4736C49.2976 81.7399 49.017 81.9477 48.6904 82.0967C48.367 82.2457 48.0051 82.3203 47.6055 82.3203C47.0728 82.3203 46.6048 82.1897 46.2021 81.9297C45.8027 81.6697 45.4915 81.3213 45.2695 80.8838C45.0475 80.443 44.9375 79.9539 44.9375 79.418V75.5361H46.0977V79.418ZM86.6904 75.4131C87.1439 75.4131 87.5694 75.5028 87.9658 75.6836C88.3621 75.8611 88.7105 76.1088 89.0117 76.4258C89.3129 76.7428 89.5477 77.1109 89.7158 77.5293C89.8871 77.9447 89.9726 78.3906 89.9727 78.8662C89.9727 79.3419 89.8871 79.7894 89.7158 80.208C89.5477 80.6234 89.313 80.9895 89.0117 81.3066C88.7105 81.6237 88.3621 81.873 87.9658 82.0537C87.5694 82.2313 87.1439 82.3203 86.6904 82.3203C86.2403 82.3203 85.8172 82.2312 85.4209 82.0537C85.0245 81.8729 84.6753 81.6238 84.374 81.3066C84.0728 80.9895 83.8363 80.6234 83.665 80.208C83.4938 79.7894 83.4082 79.3419 83.4082 78.8662C83.4082 78.3906 83.4938 77.9447 83.665 77.5293C83.8363 77.1108 84.0728 76.7428 84.374 76.4258C84.6753 76.1087 85.0245 75.8612 85.4209 75.6836C85.8171 75.503 86.2403 75.4131 86.6904 75.4131ZM36.1846 76.6973H34.1494V82.1963H32.9883V76.6973H30.9521V75.5361H36.1846V76.6973ZM61.3008 75.5361C61.7605 75.5361 62.1904 75.6235 62.5898 75.7979C62.9926 75.9691 63.3469 76.209 63.6514 76.5166C63.9588 76.821 64.1979 77.1746 64.3691 77.5771C64.5435 77.9767 64.6308 78.4064 64.6309 78.8662C64.6309 79.326 64.5435 79.7574 64.3691 80.1602C64.1979 80.5598 63.959 80.9141 63.6514 81.2217C63.3469 81.5261 62.9926 81.765 62.5898 81.9395C62.1903 82.1106 61.7605 82.1963 61.3008 82.1963H59.0938V75.5361H61.3008ZM74.5078 82.1963H73.3477V75.5361H74.5078V82.1963ZM86.6904 76.5732C86.3987 76.5733 86.124 76.6334 85.8672 76.7539C85.6104 76.8744 85.3841 77.0415 85.1875 77.2539C84.9941 77.4632 84.8415 77.7056 84.7305 77.9814C84.6227 78.2573 84.5694 78.5523 84.5693 78.8662C84.5693 79.1833 84.6244 79.48 84.7354 79.7559C84.8463 80.0317 84.999 80.2758 85.1924 80.4883C85.3889 80.6975 85.6136 80.8629 85.8672 80.9834C86.124 81.1007 86.3987 81.1592 86.6904 81.1592C86.9822 81.1592 87.2568 81.099 87.5137 80.9785C87.7705 80.858 87.996 80.6927 88.1895 80.4834C88.3859 80.271 88.5377 80.0267 88.6455 79.751C88.7565 79.4751 88.8125 79.1801 88.8125 78.8662C88.8125 78.5523 88.7565 78.2573 88.6455 77.9814C88.5345 77.7025 88.3811 77.4583 88.1846 77.249C87.9911 77.0397 87.7657 76.8744 87.5088 76.7539C87.2551 76.6335 86.9821 76.5732 86.6904 76.5732ZM60.2549 81.0361H61.3008C61.5957 81.0361 61.8737 80.9801 62.1338 80.8691C62.3969 80.755 62.6284 80.5998 62.8281 80.4033C63.0279 80.2035 63.1847 79.9729 63.2988 79.7129C63.4129 79.4497 63.4707 79.1674 63.4707 78.8662C63.4707 78.565 63.413 78.2844 63.2988 78.0244C63.1847 77.7645 63.0278 77.5347 62.8281 77.335C62.6284 77.1352 62.3986 76.9792 62.1387 76.8682C61.8786 76.754 61.5989 76.6973 61.3008 76.6973H60.2549V81.0361ZM38.3936 50.6084C40.3975 50.6084 41.929 51.0923 42.9873 52.0605C44.0455 53.0288 44.5742 54.6051 44.5742 56.7891V64.3213C44.5743 65.2893 45.036 65.7733 45.959 65.7734H46.7363L47.0742 66.1455C46.6689 66.6634 46.218 67.057 45.7227 67.3271C45.2273 67.6198 44.5519 67.7666 43.6963 67.7666C42.7282 67.7666 41.9516 67.541 41.3662 67.0908C40.8033 66.618 40.4311 65.9989 40.251 65.2334C39.5305 65.9989 38.821 66.618 38.123 67.0908C37.4251 67.5636 36.5133 67.7998 35.3877 67.7998C34.1042 67.7998 33.012 67.4393 32.1113 66.7188C31.2333 65.9757 30.7939 64.9174 30.7939 63.5439C30.7941 62.4633 31.312 61.4728 32.3477 60.5723C33.4059 59.6491 35.0609 58.9737 37.3125 58.5459C37.6953 58.4558 38.1345 58.3761 38.6299 58.3086C39.1476 58.2186 39.6542 58.1291 40.1494 58.0391V55.6406C40.1494 54.1096 39.958 53.0512 39.5752 52.4658C39.1924 51.8806 38.5849 51.5879 37.752 51.5879H37.6504C37.1325 51.5879 36.7156 51.757 36.4004 52.0947C36.1079 52.41 35.9162 52.9389 35.8262 53.6816L35.7256 54.1211C35.658 55.0217 35.4209 55.6855 35.0156 56.1133C34.6103 56.5186 34.104 56.7217 33.4961 56.7217C32.9332 56.7217 32.4599 56.5526 32.0771 56.2148C31.717 55.8546 31.5371 55.3929 31.5371 54.8301C31.5371 53.9071 31.8522 53.1304 32.4824 52.5C33.1129 51.8695 33.9466 51.3963 34.9824 51.0811C36.0407 50.7659 37.1777 50.6084 38.3936 50.6084ZM77.4375 50.6084C78.7208 50.6084 79.8133 50.8222 80.7139 51.25C81.6144 51.6778 82.3006 52.2299 82.7734 52.9053C83.2463 53.5582 83.4834 54.256 83.4834 54.999C83.4834 55.6293 83.2918 56.1134 82.9092 56.4512C82.5489 56.7889 82.0757 56.958 81.4902 56.958C80.8598 56.958 80.3418 56.7326 79.9365 56.2822C79.5538 55.8319 79.3283 55.2575 79.2607 54.5596C79.2382 54.1094 79.2382 53.7263 79.2607 53.4111C79.3057 53.0961 79.3057 52.7925 79.2607 52.5C79.1707 52.1172 79.0133 51.8578 78.7881 51.7227C78.5855 51.5876 78.2928 51.5205 77.9102 51.5205C76.4916 51.5205 75.3994 52.0948 74.6338 53.2432C73.8909 54.369 73.5195 56.2039 73.5195 58.748C73.5195 60.9319 73.9356 62.6094 74.7686 63.7803C75.6017 64.9512 76.897 65.5371 78.6533 65.5371C79.6889 65.5371 80.5443 65.3456 81.2197 64.9629C81.8952 64.5576 82.5152 63.9833 83.0781 63.2402L83.6182 63.6455C83.0553 64.9965 82.1884 66.0324 81.0176 66.7529C79.8692 67.451 78.4952 67.7998 76.8965 67.7998C75.3654 67.7998 73.9806 67.4733 72.7422 66.8203C71.5039 66.1448 70.5242 65.1769 69.8037 63.916C69.1057 62.6326 68.7568 61.0787 68.7568 59.2549C68.7568 57.431 69.1514 55.8772 69.9395 54.5938C70.7275 53.3104 71.7742 52.3308 73.0801 51.6553C74.4086 50.9572 75.8613 50.6084 77.4375 50.6084ZM94.2344 50.6084C95.653 50.6084 96.8695 50.9009 97.8828 51.4863C98.8959 52.0717 99.6725 52.8824 100.213 53.918C100.776 54.9312 101.058 56.1023 101.058 57.4307C101.058 57.7234 101.046 58.0052 101.023 58.2754C101.001 58.5229 100.956 58.7593 100.889 58.9844H90.7217C90.7442 61.3036 91.1727 62.9701 92.0059 63.9834C92.8615 64.9965 94.0996 65.5029 95.7207 65.5029C96.8466 65.5029 97.759 65.3232 98.457 64.9629C99.1549 64.5801 99.7965 64.0504 100.382 63.375L100.922 63.8818C100.246 65.1203 99.3232 66.0891 98.1523 66.7871C97.0041 67.4625 95.6307 67.7998 94.0322 67.7998C92.4335 67.7998 91.0255 67.4626 89.8096 66.7871C88.5937 66.1116 87.6375 65.1427 86.9395 63.8818C86.2639 62.5984 85.9258 61.0669 85.9258 59.2881C85.9259 57.4419 86.3204 55.8771 87.1084 54.5938C87.9189 53.3105 88.9541 52.3307 90.2148 51.6553C91.4982 50.9573 92.8384 50.6084 94.2344 50.6084ZM17.1924 45.001C19.5566 45.001 21.5944 45.4402 23.3057 46.3184C25.017 47.1965 26.3336 48.4695 27.2568 50.1357C28.1799 51.7794 28.6416 53.7717 28.6416 56.1133C28.6416 58.5001 28.1353 60.5271 27.1221 62.1934C26.1314 63.8595 24.7241 65.1316 22.9004 66.0098C21.099 66.8879 18.9933 67.3271 16.584 67.3271H8.30957V66.6182L8.98438 66.3818C9.70492 66.1567 10.0654 65.5931 10.0654 64.6924C10.0879 63.409 10.0996 62.1028 10.0996 60.7744V51.5537C10.0996 50.2478 10.0879 48.9417 10.0654 47.6357C10.0654 46.7127 9.71648 46.1383 9.01855 45.9131L8.30957 45.7109V45.001H17.1924ZM60.2715 50.6084C61.7575 50.6084 62.8945 51.0137 63.6826 51.8242C64.4932 52.6348 64.8984 53.873 64.8984 55.5391V64.9287C64.8984 65.8069 65.3046 66.3588 66.1152 66.584L66.4863 66.6855V67.3271H58.7178V66.6855L59.2246 66.5508C59.9676 66.3031 60.3388 65.7511 60.3389 64.8955V54.8643C60.3389 54.0764 60.1705 53.5019 59.833 53.1416C59.4953 52.7813 58.9317 52.6006 58.1436 52.6006C57.0403 52.6006 55.8916 53.0855 54.6982 54.0537V64.9287C54.6982 65.8069 55.0928 66.3588 55.8809 66.584L56.2188 66.6855V67.3271H48.4844V66.6855L49.0244 66.5508C49.7674 66.3256 50.1386 65.7736 50.1387 64.8955V54.9316C50.1162 54.4588 50.0374 54.0983 49.9023 53.8506C49.7672 53.5805 49.4746 53.4006 49.0244 53.3105L48.4844 53.1748V52.5674L53.9551 50.6084L54.3613 50.9795L54.5977 53.0742C55.4083 52.3537 56.3091 51.7677 57.2998 51.3174C58.3129 50.8447 59.3034 50.6084 60.2715 50.6084ZM14.9629 45.9805C14.9404 47.5342 14.9287 49.1112 14.9287 50.71V61.585C14.9287 63.1837 14.9404 64.7715 14.9629 66.3477H16.6855C18.284 66.3476 19.5787 66.0326 20.5693 65.4023C21.5826 64.7719 22.326 63.7127 22.7988 62.2266C23.2716 60.718 23.5078 58.6916 23.5078 56.1475C23.5078 53.603 23.2717 51.5877 22.7988 50.1016C22.326 48.6155 21.5942 47.5572 20.6035 46.9268C19.6353 46.2963 18.374 45.9805 16.8203 45.9805H14.9629ZM40.1494 58.917C39.5641 59.0071 38.9672 59.1198 38.3594 59.2549C37.3913 59.4801 36.603 59.897 35.9951 60.5049C35.41 61.1127 35.1173 61.9343 35.1172 62.9697C35.1172 63.8704 35.3203 64.5467 35.7256 64.9971C36.1533 65.4246 36.6939 65.6387 37.3467 65.6387C37.7969 65.6386 38.2246 65.5366 38.6299 65.334C39.0351 65.1314 39.5417 64.794 40.1494 64.3213V58.917ZM94.0654 51.5879C93.4126 51.5879 92.8381 51.7794 92.3428 52.1621C91.8701 52.5224 91.487 53.1756 91.1943 54.1211C90.9242 55.0443 90.7667 56.3505 90.7217 58.0391H96.7676C97.0153 55.7648 96.9259 54.1207 96.498 53.1074C96.0702 52.0942 95.2588 51.5879 94.0654 51.5879ZM74.3057 29.4023C75.724 29.4024 76.94 29.6949 77.9531 30.2803C78.9664 30.8657 79.7438 31.6771 80.2842 32.7129C80.8469 33.726 81.1279 34.8973 81.1279 36.2256C81.1279 36.5181 81.1172 36.7993 81.0947 37.0693C81.0722 37.317 81.0265 37.5541 80.959 37.7793H70.793C70.8155 40.0982 71.2432 41.7641 72.0762 42.7773C72.9318 43.7906 74.1708 44.2979 75.792 44.2979C76.9176 44.2978 77.8294 44.1171 78.5273 43.7568C79.2252 43.3741 79.8668 42.8452 80.4521 42.1699L80.9932 42.6768C80.3177 43.915 79.3944 44.8831 78.2236 45.5811C77.0753 46.2566 75.7013 46.5947 74.1025 46.5947C72.5039 46.5947 71.0967 46.2565 69.8809 45.5811C68.665 44.9056 67.7078 43.9376 67.0098 42.6768C66.3343 41.3933 65.9971 39.8618 65.9971 38.083C65.9971 36.2366 66.3906 34.6712 67.1787 33.3877C67.9893 32.1043 69.0252 31.1247 70.2861 30.4492C71.5696 29.7512 72.9097 29.4023 74.3057 29.4023ZM94.8145 36.3096C95.3561 36.3096 95.8516 36.3757 96.3008 36.5078C96.7632 36.6267 97.2124 36.7988 97.6484 37.0234L97.5293 39.1445H97.0146L96.3994 38.0146C96.1881 37.5921 95.9706 37.3012 95.7461 37.1426C95.5347 36.9708 95.204 36.8848 94.7549 36.8848C94.2792 36.8848 93.8563 37.0107 93.4863 37.2617C93.1295 37.4996 92.9512 37.8364 92.9512 38.2725C92.9513 38.6819 93.1025 39.019 93.4062 39.2832C93.7101 39.5342 94.1992 39.7725 94.873 39.9971L95.7256 40.2539C96.6902 40.5578 97.3775 40.9617 97.7871 41.4639C98.1966 41.966 98.4014 42.5673 98.4014 43.2676C98.4012 44.2056 98.0246 44.9655 97.2715 45.5469C96.5315 46.1149 95.481 46.3984 94.1201 46.3984C93.4859 46.3984 92.9108 46.326 92.3955 46.1807C91.8936 46.0486 91.4115 45.8573 90.9492 45.6064V43.2676H91.4844L92.0791 44.3965C92.3301 44.8854 92.6136 45.2494 92.9307 45.4873C93.261 45.7252 93.6776 45.8437 94.1797 45.8438C94.8007 45.8438 95.296 45.7115 95.666 45.4473C96.0359 45.1698 96.2216 44.8002 96.2217 44.3379C96.2217 43.915 96.0822 43.5709 95.8047 43.3066C95.5271 43.0425 95.0317 42.7978 94.3184 42.5732L93.4463 42.2959C92.6667 42.058 92.0455 41.7013 91.583 41.2256C91.1338 40.7367 90.9093 40.1289 90.9092 39.4023C90.9092 38.8341 91.0613 38.318 91.3652 37.8555C91.6692 37.3799 92.1121 37.003 92.6934 36.7256C93.2747 36.4482 93.9821 36.3096 94.8145 36.3096ZM35.7139 24.5049L35.0723 24.708C34.6445 24.8656 34.352 25.0794 34.1943 25.3496C34.0592 25.6198 33.9912 25.9911 33.9912 26.4639V45.1084H38.9561C39.7215 45.1084 40.2959 44.9169 40.6787 44.5342C41.0615 44.1514 41.422 43.5995 41.7598 42.8789L43.0098 40.0752H43.9551L43.6172 46.1211H27.3379V45.4121L28.0127 45.21C28.4855 45.0524 28.7897 44.8492 28.9248 44.6016C29.0599 44.3314 29.1279 43.96 29.1279 43.4873V26.3965C29.1279 25.9462 29.0598 25.5973 28.9248 25.3496C28.7897 25.0795 28.4971 24.8656 28.0469 24.708L27.3379 24.5049V23.7959H35.7139V24.5049ZM51.8604 29.7744L51.7588 34.5703V43.6895C51.7588 44.1398 51.8375 44.5003 51.9951 44.7705C52.1753 45.0407 52.4794 45.2428 52.9072 45.3779L53.2783 45.4795V46.1211H45.5439V45.4795L46.0508 45.3447C46.501 45.2096 46.8053 45.0065 46.9629 44.7363C47.1203 44.4663 47.2099 44.1062 47.2324 43.6562V35.5156C47.2324 34.9077 47.2217 34.2886 47.1992 33.6582C47.1992 33.2079 47.1088 32.859 46.9287 32.6113C46.7711 32.3411 46.4669 32.1604 46.0166 32.0703L45.5439 31.9697V31.3613L51.4551 29.4023L51.8604 29.7744ZM64.9111 22.1406C65.7893 22.1406 66.5891 22.3204 67.3096 22.6807C68.0526 23.0184 68.4238 23.6044 68.4238 24.4375C68.4238 25.0229 68.244 25.4962 67.8838 25.8564C67.546 26.1941 67.0503 26.3623 66.3975 26.3623C65.3618 26.3623 64.4501 25.7547 63.6621 24.5391L63.2568 24.0654C62.9868 23.728 62.7163 23.5929 62.4463 23.6602C62.1761 23.7277 61.9847 23.9533 61.8721 24.3359C61.6919 25.0565 61.5452 25.901 61.4326 26.8691C61.3425 27.8374 61.2862 28.8509 61.2637 29.9092H65.1475V30.9561H61.2637V41.3252C61.2862 42.0681 61.2978 42.8224 61.2979 43.5879C61.2979 44.4886 61.7478 45.0405 62.6484 45.2432L63.5264 45.4795V46.1211H54.8125V45.4795L55.3193 45.3447C56.2199 45.097 56.6816 44.5451 56.7041 43.6895V41.3594C56.7266 40.5713 56.7373 39.7939 56.7373 39.0283V30.9561H54.8125V30.2129L55.5557 30.0781C56.0059 30.0106 56.3325 29.853 56.5352 29.6055C56.7378 29.3353 56.8845 28.9631 56.9746 28.4902C57.2223 27.5897 57.5488 26.8131 57.9541 26.1602C58.3819 25.4847 58.8883 24.8656 59.4736 24.3027C60.3067 23.4922 61.1959 22.9285 62.1416 22.6133C63.0872 22.2981 64.0105 22.1407 64.9111 22.1406ZM88.9785 36.5283L88.9189 39.3428V44.6943C88.919 44.9585 88.9652 45.1696 89.0576 45.3281C89.1633 45.4867 89.3417 45.6063 89.5928 45.6855L89.8105 45.7451V46.1211H85.2715V45.7451L85.5684 45.666C85.8326 45.5867 86.011 45.4671 86.1035 45.3086C86.196 45.1501 86.2495 44.9389 86.2627 44.6748V39.8975C86.2627 39.5408 86.2564 39.1775 86.2432 38.8076C86.2432 38.5433 86.1897 38.3377 86.084 38.1924C85.9914 38.0341 85.8129 37.9288 85.5488 37.876L85.2715 37.8164V37.459L88.7402 36.3096L88.9785 36.5283ZM74.1367 30.3818C73.4838 30.3818 72.9094 30.5733 72.4141 30.9561C71.9412 31.3163 71.5583 31.9694 71.2656 32.915C70.9954 33.8382 70.838 35.1443 70.793 36.833H76.8389C77.0865 34.5588 76.9962 32.9146 76.5684 31.9014C76.1405 30.8884 75.3299 30.3819 74.1367 30.3818ZM87.5508 32.2861C87.9869 32.2861 88.3572 32.4246 88.6611 32.7021C88.965 32.9664 89.1172 33.3169 89.1172 33.7529C89.1172 34.1758 88.965 34.5262 88.6611 34.8037C88.3572 35.0812 87.9868 35.2197 87.5508 35.2197C87.115 35.2197 86.7452 35.0809 86.4414 34.8037C86.1375 34.5262 85.9854 34.1758 85.9854 33.7529C85.9854 33.3169 86.1375 32.9664 86.4414 32.7021C86.7452 32.4249 87.1149 32.2862 87.5508 32.2861ZM49.4277 22.5459C50.1706 22.5459 50.8015 22.7822 51.3193 23.2549C51.8371 23.7051 52.0966 24.3021 52.0967 25.0449C52.0967 25.7655 51.8372 26.3631 51.3193 26.8359C50.8015 27.3086 50.1706 27.5449 49.4277 27.5449C48.6851 27.5448 48.0548 27.3084 47.5371 26.8359C47.0192 26.3631 46.7598 25.7655 46.7598 25.0449C46.7599 24.3021 47.0193 23.7051 47.5371 23.2549C48.0548 22.7824 48.685 22.546 49.4277 22.5459Z" fill="#EB9D00"/>
</svg>
