<svg width="210" height="357" viewBox="0 0 210 357" fill="none" xmlns="http://www.w3.org/2000/svg">
<path d="M205.332 0.00488281C207.446 0.111849 209.127 1.85978 209.127 4V353L209.121 353.206C209.017 355.251 207.377 356.892 205.332 356.995L205.127 357H4C1.85996 357 0.112115 355.319 0.00488281 353.206L0 353V4C0 1.79086 1.79086 1.0222e-07 4 0H205.127L205.332 0.00488281ZM4 2C2.89543 2 2 2.89543 2 4V353C2 354.105 2.89543 355 4 355H205.127C206.231 355 207.127 354.104 207.127 353V4C207.127 2.89558 206.231 2.00024 205.127 2H4ZM50.418 307.448C50.9871 307.448 51.5368 307.538 52.0664 307.716C52.5958 307.894 53.0583 308.154 53.4541 308.495C53.855 308.837 54.1422 309.247 54.3154 309.728L52.6084 310.344C52.5391 310.146 52.3974 309.965 52.1846 309.802C51.9718 309.639 51.712 309.51 51.4053 309.416C51.0984 309.317 50.7694 309.268 50.418 309.268C50.0665 309.263 49.7318 309.32 49.415 309.438C49.1035 309.552 48.8483 309.708 48.6504 309.906C48.4527 310.104 48.3535 310.332 48.3535 310.589C48.3535 310.92 48.4458 311.171 48.6289 311.339C48.8169 311.507 49.0665 311.631 49.3779 311.71C49.6898 311.784 50.0368 311.854 50.418 311.918C51.1108 312.027 51.7519 312.209 52.3408 312.467C52.9297 312.724 53.4024 313.069 53.7588 313.499C54.1151 313.925 54.2939 314.447 54.2939 315.065C54.2939 315.694 54.1152 316.247 53.7588 316.722C53.4024 317.192 52.9298 317.558 52.3408 317.82C51.7518 318.083 51.1109 318.214 50.418 318.214C49.8438 318.214 49.2913 318.124 48.7617 317.946C48.2373 317.763 47.7767 317.503 47.3809 317.167C46.9851 316.826 46.7006 316.417 46.5273 315.942L48.2275 315.318C48.2968 315.516 48.4377 315.697 48.6504 315.86C48.8632 316.024 49.1238 316.155 49.4307 316.254C49.7375 316.353 50.0666 316.402 50.418 316.402C50.7793 316.402 51.1159 316.348 51.4277 316.239C51.7444 316.125 51.9994 315.969 52.1924 315.771C52.3854 315.569 52.4814 315.333 52.4814 315.065C52.4813 314.793 52.3805 314.571 52.1777 314.397C51.9748 314.219 51.7142 314.079 51.3975 313.975C51.0808 313.871 50.7544 313.792 50.418 313.737C49.6805 313.623 49.0196 313.448 48.4355 313.21C47.8515 312.972 47.3884 312.643 47.0469 312.223C46.7103 311.802 46.542 311.257 46.542 310.589C46.542 309.96 46.7227 309.411 47.084 308.94C47.4453 308.47 47.9207 308.104 48.5098 307.842C49.0988 307.579 49.7349 307.448 50.418 307.448ZM91.126 313.685C91.126 314.179 91.2173 314.635 91.4004 315.051C91.5884 315.461 91.8559 315.791 92.2021 316.038C92.5535 316.281 92.9796 316.402 93.4795 316.402C93.9844 316.402 94.4104 316.281 94.7568 316.038C95.1032 315.791 95.3658 315.462 95.5439 315.051C95.727 314.635 95.8184 314.179 95.8184 313.685V307.626H97.6299V313.685C97.6299 314.313 97.531 314.903 97.333 315.452C97.135 315.997 96.8526 316.477 96.4863 316.893C96.1201 317.308 95.6825 317.633 95.1729 317.865C94.668 318.098 94.1032 318.214 93.4795 318.214C92.648 318.214 91.9176 318.011 91.2891 317.605C90.6654 317.2 90.1805 316.655 89.834 315.972C89.4875 315.284 89.3145 314.521 89.3145 313.685V307.626H91.126V313.685ZM154.48 307.434C155.188 307.434 155.851 307.574 156.47 307.856C157.088 308.134 157.633 308.52 158.104 309.015C158.574 309.51 158.94 310.084 159.202 310.737C159.469 311.386 159.603 312.081 159.604 312.823C159.604 313.566 159.469 314.264 159.202 314.917C158.94 315.565 158.574 316.138 158.104 316.633C157.633 317.128 157.088 317.516 156.47 317.798C155.851 318.075 155.188 318.214 154.48 318.214C153.778 318.214 153.117 318.075 152.498 317.798C151.879 317.516 151.334 317.128 150.864 316.633C150.394 316.138 150.026 315.565 149.759 314.917C149.492 314.264 149.357 313.566 149.357 312.823C149.357 312.081 149.492 311.386 149.759 310.737C150.026 310.084 150.394 309.51 150.864 309.015C151.334 308.52 151.879 308.134 152.498 307.856C153.117 307.574 153.778 307.434 154.48 307.434ZM75.6553 309.438H72.4775V318.021H70.666V309.438H67.4883V307.626H75.6553V309.438ZM114.854 307.626C115.572 307.626 116.243 307.763 116.866 308.035C117.495 308.302 118.046 308.676 118.521 309.156C119.002 309.631 119.376 310.183 119.644 310.812C119.916 311.435 120.052 312.106 120.052 312.823C120.052 313.541 119.916 314.214 119.644 314.843C119.376 315.466 119.002 316.019 118.521 316.499C118.046 316.974 117.495 317.348 116.866 317.62C116.243 317.887 115.572 318.02 114.854 318.021H111.409V307.626H114.854ZM135.467 318.021H133.655V307.626H135.467V318.021ZM154.48 309.245C154.025 309.245 153.597 309.339 153.196 309.527C152.795 309.715 152.441 309.975 152.134 310.307C151.832 310.633 151.595 311.012 151.422 311.442C151.254 311.873 151.169 312.333 151.169 312.823C151.169 313.318 151.256 313.781 151.429 314.212C151.602 314.643 151.84 315.024 152.142 315.355C152.448 315.682 152.8 315.94 153.196 316.128C153.597 316.311 154.025 316.402 154.48 316.402C154.936 316.402 155.364 316.308 155.765 316.12C156.166 315.932 156.517 315.674 156.819 315.348C157.126 315.016 157.364 314.635 157.532 314.205C157.705 313.774 157.792 313.313 157.792 312.823C157.792 312.333 157.705 311.873 157.532 311.442C157.359 311.007 157.118 310.625 156.812 310.299C156.51 309.972 156.158 309.715 155.758 309.527C155.362 309.339 154.936 309.245 154.48 309.245ZM113.221 316.209H114.854C115.315 316.209 115.748 316.122 116.153 315.949C116.564 315.771 116.925 315.529 117.237 315.222C117.549 314.91 117.794 314.551 117.973 314.146C118.151 313.735 118.24 313.293 118.24 312.823C118.24 312.353 118.151 311.915 117.973 311.51C117.794 311.104 117.549 310.744 117.237 310.433C116.926 310.121 116.567 309.878 116.161 309.705C115.755 309.527 115.32 309.438 114.854 309.438H113.221V316.209ZM79.1016 268.72C82.2293 268.72 84.6198 269.476 86.2715 270.987C87.923 272.498 88.749 274.959 88.749 278.367V290.122C88.749 291.633 89.4693 292.389 90.9102 292.389H92.123L92.6494 292.969C92.0169 293.777 91.3141 294.392 90.541 294.813C89.7679 295.27 88.7134 295.499 87.3779 295.499C85.8671 295.499 84.6548 295.148 83.7412 294.445C82.8627 293.707 82.2821 292.741 82.001 291.546C80.8765 292.741 79.77 293.707 78.6807 294.445C77.5912 295.183 76.1673 295.552 74.4102 295.552C72.4071 295.552 70.7025 294.99 69.2969 293.865C67.9264 292.706 67.2413 291.054 67.2412 288.91C67.2412 287.223 68.0494 285.676 69.666 284.271C71.3177 282.83 73.9009 281.776 77.415 281.108C78.0124 280.968 78.6977 280.845 79.4707 280.739C80.2789 280.599 81.0698 280.458 81.8428 280.317V276.574C81.8427 274.185 81.5447 272.533 80.9473 271.619C80.3498 270.706 79.4008 270.249 78.1006 270.249H77.9424C77.1343 270.249 76.4841 270.512 75.9922 271.039C75.5353 271.531 75.2363 272.358 75.0957 273.518L74.9375 274.202C74.8321 275.608 74.4627 276.645 73.8301 277.312C73.1975 277.945 72.4068 278.262 71.458 278.262C70.5796 278.262 69.8415 277.998 69.2441 277.471C68.682 276.908 68.4014 276.188 68.4014 275.31C68.4014 273.869 68.8929 272.656 69.877 271.672C70.8609 270.688 72.1618 269.95 73.7783 269.458C75.4298 268.966 77.2042 268.72 79.1016 268.72ZM140.039 268.72C142.042 268.72 143.747 269.054 145.152 269.722C146.558 270.389 147.63 271.25 148.368 272.305C149.106 273.324 149.475 274.414 149.475 275.573C149.475 276.557 149.176 277.313 148.579 277.84C148.017 278.367 147.278 278.631 146.364 278.631C145.38 278.631 144.572 278.279 143.939 277.576C143.342 276.873 142.991 275.977 142.886 274.888C142.851 274.185 142.851 273.588 142.886 273.096C142.956 272.604 142.956 272.129 142.886 271.672C142.745 271.075 142.499 270.671 142.147 270.46C141.831 270.249 141.375 270.144 140.777 270.144C138.563 270.144 136.858 271.04 135.663 272.832C134.504 274.589 133.924 277.454 133.924 281.425C133.924 284.833 134.574 287.452 135.874 289.279C137.174 291.107 139.195 292.02 141.937 292.02C143.553 292.02 144.889 291.721 145.943 291.124C146.997 290.492 147.963 289.595 148.842 288.436L149.686 289.068C148.807 291.177 147.454 292.793 145.627 293.918C143.835 295.007 141.69 295.552 139.195 295.552C136.806 295.552 134.645 295.042 132.712 294.023C130.779 292.969 129.25 291.457 128.125 289.489C127.036 287.486 126.491 285.061 126.491 282.215C126.491 279.368 127.106 276.944 128.336 274.94C129.566 272.937 131.2 271.409 133.238 270.354C135.312 269.265 137.579 268.72 140.039 268.72ZM166.255 268.72C168.469 268.72 170.367 269.177 171.948 270.091C173.529 271.004 174.742 272.269 175.585 273.886C176.463 275.467 176.903 277.295 176.903 279.368C176.903 279.825 176.886 280.265 176.851 280.687C176.815 281.073 176.745 281.442 176.64 281.793H160.772C160.808 285.412 161.475 288.013 162.775 289.595C164.111 291.176 166.044 291.968 168.574 291.968C170.331 291.968 171.755 291.686 172.845 291.124C173.934 290.527 174.935 289.701 175.849 288.646L176.692 289.437C175.638 291.369 174.198 292.881 172.37 293.971C170.578 295.025 168.434 295.552 165.938 295.552C163.444 295.552 161.247 295.025 159.35 293.971C157.452 292.916 155.958 291.405 154.868 289.437C153.814 287.433 153.287 285.044 153.287 282.268C153.287 279.386 153.902 276.944 155.132 274.94C156.397 272.937 158.014 271.409 159.981 270.354C161.985 269.265 164.076 268.72 166.255 268.72ZM46.0127 259.97C49.7026 259.97 52.8829 260.655 55.5537 262.025C58.2246 263.396 60.2808 265.382 61.7217 267.982C63.1624 270.548 63.8828 273.658 63.8828 277.312C63.8828 281.038 63.0922 284.201 61.5107 286.802C59.9645 289.402 57.7674 291.387 54.9209 292.758C52.1095 294.128 48.8237 294.813 45.0635 294.813H32.1484V293.707L33.2031 293.338C34.3275 292.986 34.8896 292.108 34.8896 290.702C34.9248 288.699 34.9424 286.66 34.9424 284.587V270.196C34.9424 268.158 34.9248 266.119 34.8896 264.081C34.8896 262.64 34.345 261.744 33.2559 261.393L32.1484 261.076V259.97H46.0127ZM113.248 268.72C115.567 268.72 117.342 269.353 118.572 270.618C119.837 271.883 120.47 273.816 120.47 276.416V291.071C120.47 292.442 121.102 293.303 122.367 293.654L122.947 293.812V294.813H110.823V293.812L111.614 293.602C112.774 293.215 113.353 292.354 113.354 291.019V275.362C113.354 274.132 113.09 273.236 112.562 272.674C112.035 272.112 111.157 271.83 109.927 271.83C108.205 271.83 106.412 272.586 104.55 274.097V291.071C104.55 292.442 105.166 293.303 106.396 293.654L106.922 293.812V294.813H94.8506V293.812L95.6943 293.602C96.8539 293.25 97.4336 292.389 97.4336 291.019V275.468C97.3985 274.73 97.2753 274.167 97.0645 273.78C96.8535 273.359 96.3968 273.078 95.6943 272.938L94.8506 272.727V271.777L103.391 268.72L104.022 269.3L104.392 272.568C105.657 271.444 107.063 270.53 108.609 269.827C110.191 269.089 111.737 268.72 113.248 268.72ZM42.5332 261.498C42.4981 263.923 42.4805 266.383 42.4805 268.878V285.853C42.4805 288.348 42.4981 290.825 42.5332 293.285H45.2217C47.7168 293.285 49.7379 292.794 51.2842 291.81C52.8656 290.826 54.0247 289.173 54.7627 286.854C55.5006 284.499 55.8701 281.336 55.8701 277.365C55.8701 273.394 55.5007 270.249 54.7627 267.93C54.0248 265.61 52.883 263.959 51.3369 262.975C49.8258 261.991 47.8575 261.498 45.4326 261.498H42.5332ZM81.8428 281.688C80.9292 281.828 79.9976 282.004 79.0488 282.215C77.538 282.566 76.3081 283.216 75.3594 284.165C74.4457 285.114 73.9883 286.397 73.9883 288.014C73.9883 289.419 74.3049 290.474 74.9375 291.177C75.6052 291.844 76.4487 292.178 77.4678 292.178C78.1705 292.178 78.8382 292.02 79.4707 291.704C80.1032 291.388 80.894 290.86 81.8428 290.122V281.688ZM165.991 270.249C164.972 270.249 164.076 270.547 163.303 271.145C162.565 271.707 161.968 272.726 161.511 274.202C161.089 275.643 160.843 277.682 160.772 280.317H170.209C170.596 276.768 170.455 274.203 169.787 272.621C169.119 271.04 167.854 270.249 165.991 270.249ZM135.15 235.624C137.364 235.624 139.262 236.08 140.844 236.994C142.425 237.908 143.637 239.173 144.48 240.79C145.359 242.371 145.799 244.199 145.799 246.272C145.799 246.729 145.781 247.168 145.746 247.59C145.711 247.976 145.641 248.346 145.535 248.697H129.668C129.703 252.317 130.371 254.918 131.671 256.499C133.006 258.08 134.94 258.871 137.47 258.871C139.227 258.871 140.651 258.59 141.74 258.027C142.829 257.43 143.831 256.604 144.744 255.55L145.588 256.341C144.534 258.274 143.093 259.785 141.266 260.874C139.473 261.928 137.329 262.456 134.834 262.456C132.339 262.456 130.143 261.928 128.245 260.874C126.347 259.82 124.853 258.309 123.764 256.341C122.709 254.338 122.183 251.948 122.183 249.172C122.183 246.29 122.797 243.847 124.027 241.844C125.292 239.841 126.909 238.312 128.877 237.258C130.88 236.168 132.972 235.624 135.15 235.624ZM167.16 246.404C168.006 246.404 168.779 246.508 169.48 246.714C170.202 246.899 170.904 247.167 171.584 247.518L171.398 250.828H170.594L169.635 249.064C169.305 248.405 168.965 247.951 168.614 247.703C168.284 247.435 167.768 247.302 167.067 247.302C166.325 247.302 165.664 247.498 165.087 247.89C164.53 248.261 164.252 248.786 164.252 249.467C164.252 250.106 164.489 250.632 164.963 251.045C165.437 251.437 166.201 251.808 167.253 252.158L168.583 252.561C170.088 253.035 171.16 253.664 171.8 254.447C172.439 255.231 172.759 256.17 172.759 257.263C172.759 258.727 172.172 259.913 170.996 260.82C169.841 261.707 168.201 262.15 166.077 262.15C165.087 262.15 164.19 262.037 163.386 261.811C162.602 261.604 161.849 261.305 161.127 260.913V257.263H161.963L162.891 259.026C163.282 259.789 163.726 260.356 164.221 260.728C164.736 261.099 165.386 261.284 166.17 261.284C167.139 261.284 167.913 261.078 168.49 260.666C169.068 260.233 169.356 259.655 169.356 258.934C169.356 258.274 169.14 257.737 168.707 257.324C168.274 256.912 167.5 256.53 166.387 256.18L165.025 255.747C163.809 255.376 162.839 254.819 162.117 254.076C161.416 253.313 161.065 252.365 161.065 251.23C161.065 250.344 161.303 249.539 161.777 248.817C162.252 248.075 162.942 247.487 163.85 247.054C164.757 246.621 165.861 246.404 167.16 246.404ZM74.9199 227.98L73.918 228.296C73.2504 228.542 72.7938 228.876 72.5479 229.298C72.337 229.719 72.2315 230.299 72.2314 231.037V260.136H79.9805C81.1752 260.136 82.0715 259.838 82.6689 259.24C83.2663 258.643 83.8284 257.782 84.3555 256.657L86.3066 252.281H87.7822L87.2549 261.718H61.8467V260.61L62.9014 260.294C63.6389 260.048 64.1133 259.732 64.3242 259.346C64.5351 258.924 64.6406 258.343 64.6406 257.605V230.932C64.6406 230.229 64.535 229.684 64.3242 229.298C64.1134 228.876 63.6568 228.542 62.9541 228.296L61.8467 227.98V226.873H74.9199V227.98ZM100.119 236.204L99.9609 243.689V257.922C99.9609 258.625 100.084 259.188 100.33 259.609C100.611 260.031 101.086 260.347 101.754 260.558L102.333 260.716V261.718H90.2617V260.716L91.0527 260.505C91.7552 260.294 92.2296 259.978 92.4756 259.557C92.7216 259.135 92.8623 258.572 92.8975 257.869V245.165C92.8975 244.216 92.8799 243.25 92.8447 242.266C92.8447 241.563 92.704 241.018 92.4229 240.632C92.1769 240.21 91.7027 239.929 91 239.788L90.2617 239.63V238.682L99.4863 235.624L100.119 236.204ZM120.489 224.29C121.86 224.29 123.108 224.571 124.232 225.134C125.392 225.661 125.972 226.575 125.972 227.875C125.972 228.789 125.69 229.527 125.128 230.089C124.601 230.616 123.828 230.879 122.809 230.879C121.192 230.879 119.769 229.931 118.539 228.033L117.906 227.295C117.485 226.768 117.062 226.557 116.641 226.662C116.219 226.768 115.921 227.12 115.745 227.717C115.464 228.841 115.235 230.159 115.06 231.67C114.919 233.181 114.831 234.762 114.796 236.414H120.858V238.049H114.796V254.232C114.831 255.392 114.849 256.569 114.849 257.764C114.849 259.169 115.552 260.03 116.957 260.347L118.328 260.716V261.718H104.728V260.716L105.519 260.505C106.924 260.118 107.645 259.257 107.68 257.922V254.285C107.715 253.055 107.732 251.842 107.732 250.647V238.049H104.728V236.889L105.888 236.678C106.59 236.572 107.1 236.327 107.416 235.94C107.732 235.519 107.961 234.938 108.102 234.2C108.488 232.795 108.997 231.582 109.63 230.563C110.298 229.509 111.088 228.543 112.002 227.664C113.302 226.399 114.691 225.52 116.167 225.028C117.643 224.536 119.084 224.29 120.489 224.29ZM158.052 246.744L157.959 251.138V259.49C157.959 259.903 158.031 260.233 158.176 260.48C158.341 260.728 158.619 260.913 159.011 261.037L159.351 261.13V261.718H152.267V261.13L152.73 261.006C153.143 260.882 153.421 260.697 153.565 260.449C153.71 260.202 153.793 259.871 153.813 259.459V252.004C153.813 251.447 153.803 250.879 153.782 250.302C153.782 249.889 153.7 249.57 153.535 249.343C153.391 249.095 153.112 248.931 152.699 248.849L152.267 248.756V248.198L157.681 246.404L158.052 246.744ZM134.887 237.152C133.868 237.152 132.971 237.451 132.198 238.049C131.46 238.611 130.863 239.631 130.406 241.106C129.985 242.547 129.738 244.585 129.668 247.221H139.104C139.491 243.671 139.35 241.106 138.683 239.524C138.015 237.943 136.749 237.152 134.887 237.152ZM155.824 240.124C156.505 240.124 157.082 240.34 157.557 240.773C158.031 241.186 158.268 241.733 158.269 242.413C158.269 243.073 158.031 243.62 157.557 244.053C157.082 244.486 156.505 244.703 155.824 244.703C155.144 244.703 154.566 244.486 154.092 244.053C153.618 243.62 153.38 243.073 153.38 242.413C153.38 241.733 153.618 241.186 154.092 240.773C154.566 240.34 155.144 240.124 155.824 240.124ZM96.3242 224.923C97.4838 224.923 98.4681 225.291 99.2764 226.029C100.085 226.732 100.488 227.664 100.488 228.823C100.488 229.948 100.084 230.879 99.2764 231.617C98.4681 232.355 97.4838 232.725 96.3242 232.725C95.1645 232.725 94.1804 232.355 93.3721 231.617C92.5638 230.879 92.1592 229.948 92.1592 228.823C92.1593 227.664 92.5639 226.732 93.3721 226.029C94.1803 225.291 95.1646 224.923 96.3242 224.923ZM115.631 24.4287C116.175 24.4574 116.643 24.647 117.017 24.8916C117.703 25.3418 118.141 26.0242 118.426 26.5771C119.018 27.7263 119.471 29.3644 119.842 31.165C119.976 31.8161 120.103 32.5125 120.226 33.2461C127.193 35.4412 135.328 39.0052 140.632 43.4697C142.813 45.3062 144.987 48.5505 143.591 52.1338C142.487 54.9679 140.339 58.7867 137.583 62.2656C135.367 65.0629 132.64 67.7885 129.604 69.5693C134.52 76.843 141.589 87.2432 147.535 97.8223C150.777 103.59 153.713 109.459 155.795 114.947C157.863 120.4 159.156 125.652 158.946 130.128C158.724 134.87 157.9 139.587 156.812 144.005C160.288 147.384 163.512 150.805 166.021 153.979C167.714 156.123 169.13 158.215 170.071 160.15C170.987 162.034 171.591 164.045 171.27 165.915C171.057 167.153 170.398 168.397 169.589 169.564C168.758 170.763 167.654 172.042 166.363 173.365C163.781 176.013 160.31 178.98 156.404 182.023C154.267 183.689 151.985 185.385 149.629 187.079C149.722 189.818 149.792 192.544 149.802 195.142C149.82 199.885 149.653 204.311 149.091 207.641C148.812 209.292 148.413 210.817 147.809 212.008C147.22 213.166 146.207 214.428 144.535 214.665C142.778 214.914 141.469 213.854 140.649 212.834C139.807 211.786 139.104 210.344 138.495 208.748C137.308 205.635 136.278 201.378 135.371 196.734C133.717 197.794 132.09 198.815 130.515 199.786C128.512 201.02 126.06 201.011 124.563 199.339C123.019 197.612 123.403 195.158 124.998 193.388C127.5 190.611 130.367 187.675 133.352 184.743C132.39 178.283 131.585 171.928 130.912 167.177L130.896 167.061L130.894 166.944L130.715 159.374C128.491 158.816 126.533 158.358 125.021 158.049C119.334 166.465 110.835 178.678 102.993 189.169C98.92 194.618 95.0039 199.631 91.7422 203.412C90.1138 205.3 88.6222 206.912 87.3379 208.127C86.6959 208.734 86.0815 209.266 85.5088 209.688C84.9586 210.095 84.3445 210.478 83.7109 210.694C83.1177 210.897 82.3516 211.02 81.5586 210.755C80.716 210.474 80.1729 209.868 79.8623 209.251C79.3274 208.188 79.3374 206.827 79.4453 205.683C79.678 203.216 80.6033 199.752 81.8164 196.008C83.3113 191.394 85.3245 186.117 87.2998 181.276C84.3959 184.055 81.5161 186.835 78.6973 189.468C71.8733 195.842 63.6738 202.767 56.5264 208.093C54.2906 209.759 51.3729 210.158 49.6006 208.066C47.9445 206.112 48.4792 203.279 50.1826 201.104C55.2959 194.577 60.959 187.155 65.6934 180.972C70.3886 174.839 74.2446 169.825 75.667 168.229C79.4205 164.016 86.8112 153.018 96.0029 136.736C96.2232 136.346 96.3927 135.953 96.5156 135.557C95.5344 136.197 94.5699 136.73 93.6357 137.119C91.4048 138.047 89.2554 137.992 87.5723 136.612C86.0805 135.389 85.3811 133.443 85.0303 131.644C84.3829 128.323 84.6697 124.128 85.1465 121.002C79.1018 116.657 76.898 107.756 81.9072 101.636C82.1034 101.396 82.3008 101.153 82.501 100.908L82.4229 100.877C86.4707 91.0452 95.3351 69.7999 98.1914 64.0254L98.2734 63.8594L98.3857 63.71C99.8282 61.7922 103.841 58.3586 110.717 55.3525C111.042 52.1904 111.197 48.933 111.281 45.7744C111.322 44.2385 111.345 42.7064 111.365 41.2188C109.988 40.2396 108.713 39.2857 107.631 38.3994C106.304 37.3131 105.114 36.2092 104.428 35.2158C104.127 34.7804 103.729 34.018 103.894 33.083C104.075 32.0517 104.81 31.4772 105.354 31.207C105.88 30.9465 106.458 30.8385 106.946 30.7881C107.462 30.7349 108.032 30.7318 108.625 30.7607C109.504 30.8036 110.53 30.9234 111.663 31.1123C111.755 30.0173 111.883 29.0193 112.072 28.1719C112.214 27.5391 112.406 26.9027 112.691 26.3438C112.97 25.7977 113.426 25.1511 114.181 24.7549L114.339 24.6787C114.716 24.5079 115.154 24.4037 115.631 24.4287ZM145.714 189.844C143.489 191.387 141.232 192.91 138.995 194.382C139.064 194.751 139.131 195.119 139.201 195.483C140.122 200.274 141.134 204.439 142.233 207.322C142.789 208.78 143.315 209.764 143.768 210.328C143.863 210.446 143.941 210.53 144.003 210.59C144.065 210.507 144.147 210.382 144.241 210.196C144.576 209.537 144.892 208.475 145.146 206.976C145.648 204.001 145.819 199.861 145.801 195.157C145.794 193.436 145.762 191.654 145.714 189.844ZM120.44 157.679C118.491 157.901 116.314 158.613 113.914 159.8C110.415 161.53 106.632 164.17 102.678 167.374C99.9919 169.551 97.2705 171.951 94.543 174.456C91.7829 180.687 88.0076 189.876 85.6211 197.241C84.4153 200.963 83.6158 204.064 83.4277 206.058C83.4214 206.125 83.4178 206.191 83.4131 206.253C83.7525 205.983 84.1454 205.64 84.5889 205.221C85.7327 204.139 87.1248 202.641 88.7129 200.8C91.8849 197.122 95.7374 192.196 99.79 186.774C107.021 177.101 114.827 165.935 120.44 157.679ZM115.312 111.491C115.362 111.868 115.375 112.239 115.362 112.588C115.284 114.742 114.242 117.196 112.853 118.976C110.252 122.307 106.994 126.174 103.658 129.518C102.664 130.514 101.643 131.483 100.616 132.386C100.971 134.414 100.701 136.549 99.4863 138.702C90.289 154.994 82.7188 166.328 78.6533 170.891C77.3597 172.342 73.6348 177.179 68.8691 183.403C64.1421 189.577 58.4616 197.022 53.3311 203.571C52.8145 204.231 52.6448 204.762 52.6104 205.087C52.585 205.327 52.6297 205.44 52.6475 205.473C52.6666 205.48 52.7096 205.492 52.792 205.49C52.9996 205.485 53.463 205.387 54.1357 204.886C61.1498 199.66 69.2367 192.832 75.9668 186.545C83.5691 179.443 92.0761 170.817 100.159 164.267C104.216 160.979 108.261 158.132 112.141 156.214C116 154.306 119.893 153.219 123.568 153.729C125.095 153.94 127.614 154.491 130.617 155.229L129.94 126.458C128.96 125.738 128.202 125.207 127.724 124.901C126.6 124.184 125.238 122.918 123.804 121.426C122.336 119.899 120.676 118.011 118.941 115.941C117.761 114.533 116.54 113.032 115.312 111.491ZM134.111 189.625C131.924 191.819 129.84 193.988 127.969 196.064C127.714 196.347 127.629 196.554 127.601 196.66C127.716 196.666 127.995 196.64 128.416 196.381C130.409 195.153 132.482 193.843 134.589 192.48C134.426 191.538 134.267 190.584 134.111 189.625ZM145.295 178.914C142.77 181.249 140.16 183.702 137.612 186.173C137.814 187.484 138.023 188.793 138.238 190.086C140.692 188.454 143.154 186.769 145.553 185.072C145.493 183.517 145.43 181.963 145.362 180.429C145.34 179.922 145.317 179.416 145.295 178.914ZM155.61 148.438C155.08 150.238 154.524 151.966 153.965 153.599C153.022 156.354 152.067 158.856 151.234 160.993C152.451 161.373 153.594 161.738 154.634 162.083C157.696 163.099 158.417 166.959 156.092 169.073C154.086 170.897 151.71 173.042 149.144 175.383C149.212 176.955 149.285 178.587 149.358 180.253C149.388 180.921 149.415 181.594 149.443 182.271C150.998 181.127 152.507 179.99 153.946 178.868C157.787 175.876 161.098 173.035 163.5 170.572C164.702 169.34 165.642 168.237 166.302 167.286C166.983 166.304 167.261 165.629 167.328 165.237C167.437 164.607 167.264 163.525 166.474 161.899C165.708 160.325 164.485 158.488 162.882 156.459C160.888 153.935 158.379 151.207 155.61 148.438ZM134.889 166.735C135.467 170.833 136.13 175.973 136.895 181.313C139.66 178.673 142.446 176.092 145.065 173.692C144.965 171.289 144.884 169.036 144.85 167.046L144.844 166.76L144.92 166.482C145.123 165.742 145.487 164.742 145.938 163.564C142.935 162.673 139.715 161.758 136.626 160.92C135.989 160.747 135.359 160.579 134.739 160.414L134.889 166.735ZM149.776 164.729C149.358 165.812 149.044 166.661 148.855 167.28C148.873 168.192 148.899 169.157 148.933 170.167C150.561 168.69 152.068 167.325 153.4 166.114C153.443 166.076 153.456 166.046 153.461 166.031C153.467 166.011 153.468 165.987 153.463 165.964C153.458 165.941 153.45 165.926 153.442 165.918C153.439 165.914 153.423 165.896 153.374 165.88C152.282 165.518 151.071 165.131 149.776 164.729ZM134.642 156.252C135.633 156.512 136.648 156.781 137.674 157.06C140.894 157.933 144.264 158.892 147.396 159.825C148.248 157.647 149.221 155.106 150.181 152.303C150.937 150.092 151.68 147.729 152.35 145.268C151.691 144.643 151.023 144.02 150.351 143.399C144.576 138.077 138.5 133.068 134.015 129.561L134.642 156.252ZM120.848 37.6582C121.057 39.3901 121.245 41.2228 121.415 43.0938C122.958 44.0667 124.474 45.0007 125.875 45.8457C126.543 46.2484 127.203 46.7035 127.775 47.1963C128.328 47.6721 128.903 48.2724 129.278 48.9844C129.67 49.7286 129.928 50.7871 129.428 51.8828C128.967 52.8921 128.058 53.4839 127.2 53.8467C126.006 54.3516 124.412 54.9293 122.316 55.5938C122.413 57.2269 122.502 58.7911 122.582 60.2412C122.828 64.7232 122.995 67.9543 123.137 68.9531C123.238 69.6715 123.13 70.4614 122.981 71.1572C122.824 71.8983 122.575 72.7357 122.266 73.627C121.645 75.4129 120.731 77.5498 119.646 79.8076C117.478 84.3221 114.554 89.4729 111.724 93.5029C110.259 95.5876 110.187 98.269 111.527 100.054C114.812 104.427 118.599 109.306 122.007 113.371C123.712 115.405 125.308 117.218 126.688 118.654C128.103 120.126 129.185 121.088 129.876 121.529C132.696 123.329 143.347 131.505 153.062 140.458C153.19 140.576 153.316 140.697 153.444 140.815C154.218 137.272 154.779 133.601 154.95 129.94C155.122 126.277 154.053 121.633 152.056 116.366C150.072 111.135 147.239 105.457 144.049 99.7812C137.666 88.425 129.961 77.2659 125.014 69.9189L123.639 67.876L125.918 66.9492C128.898 65.7361 131.89 63.0118 134.448 59.7822C136.984 56.5805 138.919 53.1051 139.863 50.6826C140.315 49.5223 139.769 47.9723 138.057 46.5303C133.744 42.9002 127.076 39.7842 120.848 37.6582ZM88.8555 123.532C88.5973 126.023 88.5446 128.761 88.957 130.877C89.253 132.395 89.7139 133.195 90.1084 133.519C90.3119 133.685 90.7768 133.976 92.0996 133.426C93.2581 132.944 94.5721 132.115 95.9863 131.025C95.69 130.427 95.3108 129.815 94.8496 129.189C93.3961 127.218 91.2595 125.3 88.8555 123.532ZM110.906 111.754C110.767 111.763 110.617 111.779 110.455 111.802C109.775 111.898 108.454 112.325 106.589 113.088C104.787 113.825 102.65 114.799 100.422 115.871C97.3253 117.361 94.0914 119.018 91.4004 120.439C93.9489 122.33 96.3473 124.48 98.0693 126.815C98.4392 127.317 98.7813 127.837 99.0908 128.369C99.6615 127.838 100.241 127.278 100.825 126.692C104.01 123.5 107.16 119.768 109.699 116.515C110.687 115.249 111.322 113.584 111.364 112.443C111.379 112.034 111.312 111.839 111.283 111.772C111.226 111.757 111.11 111.741 110.906 111.754ZM118.381 56.7832C116.964 57.2178 115.643 57.6791 114.415 58.1543C114.285 59.1324 114.137 60.1014 113.967 61.0547C113.092 65.9449 111.613 70.6378 108.989 74.127C103.302 81.6899 92.5911 94.8985 85.0029 104.17C81.674 108.238 83.0008 114.707 87.6768 117.89C90.6825 116.275 94.7851 114.144 98.6875 112.267C100.951 111.178 103.169 110.164 105.075 109.385C106.918 108.631 108.662 108.015 109.895 107.841C110.151 107.805 110.402 107.778 110.646 107.762C111.308 107.719 111.953 107.786 112.548 107.979C111.095 106.108 109.669 104.238 108.33 102.455C105.766 99.041 106.178 94.4399 108.45 91.2041C111.132 87.3861 113.949 82.4319 116.041 78.0762C117.086 75.8993 117.933 73.909 118.487 72.3135C118.765 71.5144 118.958 70.8467 119.069 70.3242C119.125 70.0645 119.155 69.8611 119.169 69.71C119.183 69.553 119.174 69.4969 119.177 69.5137C119.004 68.2904 118.825 64.7739 118.588 60.4609C118.524 59.2977 118.455 58.0639 118.381 56.7832ZM57.6582 82.209C61.8907 78.2906 69.6518 79.5453 75.1504 85.0918L75.6611 85.627C80.8018 91.2187 81.7413 98.7861 77.6885 102.805L77.4893 102.995C73.3913 106.79 65.9851 105.735 60.5273 100.629L59.9971 100.113C54.4115 94.4785 53.2751 86.5475 57.459 82.3994L57.6582 82.209ZM65.1777 84.0312C62.9071 83.6857 61.2608 84.2637 60.2754 85.2402C59.2902 86.2171 58.6977 87.8582 59.0234 90.1318C59.3492 92.4053 60.5889 95.0291 62.8379 97.2979C65.0869 99.5663 67.6993 100.828 69.9697 101.174C72.2407 101.519 73.8867 100.941 74.8721 99.9639C75.8571 98.987 76.4488 97.3467 76.123 95.0732C75.7972 92.7999 74.5584 90.1768 72.3096 87.9082C70.0606 85.6396 67.4482 84.3769 65.1777 84.0312ZM110.078 60.0625C105.315 62.4423 102.622 64.828 101.69 65.9766C99.7534 69.9372 95.1811 80.6721 91.1709 90.248C96.6924 83.4138 102.243 76.4433 105.793 71.7227C107.862 68.9714 109.197 65.0038 110.029 60.3506C110.046 60.2549 110.061 60.1586 110.078 60.0625ZM67.4414 58.8262C70.5994 54 78.4325 53.3387 85.1104 57.3887L85.7354 57.7832C92.0773 61.9638 94.8217 69.0796 91.8623 73.96L91.7148 74.1924C88.6577 78.8664 81.2172 79.6361 74.6855 76.0039L74.0459 75.6318C67.2618 71.5172 64.2387 64.0974 67.2939 59.0596L67.4414 58.8262ZM83.0361 60.8086C80.3047 59.1521 77.4644 58.5599 75.1777 58.7744C72.891 58.989 71.4335 59.9477 70.7139 61.1338C69.9945 62.3201 69.818 64.0564 70.6846 66.1836C71.5513 68.3104 73.389 70.5554 76.1201 72.2119C78.8515 73.8683 81.6919 74.4606 83.9785 74.2461C86.2653 74.0314 87.7229 73.072 88.4424 71.8857C89.1616 70.6994 89.3382 68.9639 88.4717 66.8369C87.6051 64.7101 85.7673 62.4651 83.0361 60.8086ZM115.28 45.8809C115.213 48.4214 115.098 51.0732 114.883 53.7217C115.916 53.3611 116.998 53.0123 118.131 52.6826C117.979 50.317 117.807 47.8777 117.608 45.4854C117.606 45.4597 117.604 45.4339 117.602 45.4082C116.839 44.9187 116.076 44.424 115.324 43.9268C115.312 44.5669 115.298 45.2187 115.28 45.8809ZM122.06 51.4727C123.383 51.0364 124.436 50.654 125.264 50.3184C125.232 50.2899 125.2 50.2579 125.165 50.2275C124.81 49.9219 124.347 49.5945 123.81 49.2705C123.169 48.8839 122.503 48.4772 121.82 48.0576C121.905 49.2013 121.985 50.344 122.06 51.4727ZM115.394 39.1494C115.958 39.5363 116.536 39.9272 117.122 40.3174C116.975 38.9291 116.818 37.5982 116.648 36.3525C116.239 36.238 115.837 36.1298 115.443 36.0273C115.422 37.0162 115.407 38.0588 115.394 39.1494ZM110.165 35.3047C110.558 35.6267 110.986 35.9594 111.438 36.3057C111.446 35.9086 111.456 35.5195 111.466 35.1396C110.802 35.0203 110.188 34.9259 109.634 34.8604C109.801 35.0028 109.978 35.1512 110.165 35.3047ZM115.61 31.9434C115.718 31.9699 115.825 31.9981 115.934 32.0254C115.93 32.0076 115.927 31.9894 115.924 31.9717C115.848 31.6039 115.77 31.2613 115.694 30.9434C115.663 31.2559 115.636 31.5895 115.61 31.9434Z" fill="#4A4A4A"/>
</svg>
